<?xml version="1.0" encoding="UTF-8"?>
<svg version="1.1" xmlns="http://www.w3.org/2000/svg" width="222" height="220">
<path d="M0 0 C73.26 0 146.52 0 222 0 C222 72.6 222 145.2 222 220 C148.74 220 75.48 220 0 220 C0 147.4 0 74.8 0 0 Z " fill="#FCFCFC" transform="translate(0,0)"/>
<path d="M0 0 C0.81559387 0.00141495 1.63118774 0.0028299 2.47149658 0.00428772 C5.06957712 0.00987322 7.66757063 0.02242304 10.265625 0.03515625 C12.02994667 0.04017313 13.79426969 0.04473571 15.55859375 0.04882812 C19.87766445 0.05898586 24.19654762 0.07856406 28.515625 0.09765625 C28.515625 9.33765625 28.515625 18.57765625 28.515625 28.09765625 C16.890625 28.41015625 16.890625 28.41015625 13.25927734 28.4855957 C5.40146756 28.66048443 5.40146756 28.66048443 -1.484375 32.09765625 C-6.52887014 38.26785249 -6.14031831 44.82970623 -6.234375 52.53515625 C-6.316875 56.68078125 -6.399375 60.82640625 -6.484375 65.09765625 C4.075625 65.09765625 14.635625 65.09765625 25.515625 65.09765625 C24.91643063 72.88718306 24.32235776 80.28627421 22.953125 87.91015625 C22.47875 90.61203125 22.004375 93.31390625 21.515625 96.09765625 C12.275625 96.09765625 3.035625 96.09765625 -6.484375 96.09765625 C-6.484375 124.14765625 -6.484375 152.19765625 -6.484375 181.09765625 C-16.384375 181.09765625 -26.284375 181.09765625 -36.484375 181.09765625 C-36.484375 153.04765625 -36.484375 124.99765625 -36.484375 96.09765625 C-45.724375 96.09765625 -54.964375 96.09765625 -64.484375 96.09765625 C-64.484375 85.86765625 -64.484375 75.63765625 -64.484375 65.09765625 C-55.244375 65.09765625 -46.004375 65.09765625 -36.484375 65.09765625 C-36.50757812 62.98746094 -36.53078125 60.87726563 -36.5546875 58.703125 C-36.57035968 56.62118122 -36.58246111 54.53924444 -36.59423828 52.45727539 C-36.6041924 51.02885923 -36.61776062 49.60046287 -36.63525391 48.17211914 C-36.78301679 35.78176657 -36.56901209 24.70377472 -29.484375 14.09765625 C-28.80375 13.06640625 -28.123125 12.03515625 -27.421875 10.97265625 C-20.21541365 2.72680144 -10.43432279 -0.06828396 0 0 Z " fill="#154CA3" transform="translate(152.484375,35.90234375)"/>
<path d="M0 0 C0.33 0 0.66 0 1 0 C1 7.59 1 15.18 1 23 C11.56 23 22.12 23 33 23 C33 30.74566274 32.90090166 37.32176219 31.5 44.75 C31.005 47.4725 30.51 50.195 30 53 C20.76 53 11.52 53 2 53 C2 81.05 2 109.1 2 138 C-7.9 138 -17.8 138 -28 138 C-28 109.62 -28 81.24 -28 52 C-36.91 52 -45.82 52 -55 52 C-55 42.43 -55 32.86 -55 23 C-53.18663105 26.6267379 -52.73265305 27.95102067 -52.5859375 31.765625 C-52.52792969 33.09980469 -52.52792969 33.09980469 -52.46875 34.4609375 C-52.42234375 35.84152344 -52.42234375 35.84152344 -52.375 37.25 C-52.33632812 38.18585938 -52.29765625 39.12171875 -52.2578125 40.0859375 C-52.16375156 42.39043054 -52.07810601 44.69492013 -52 47 C-49.60709722 48.19645139 -48.19975194 48.08656879 -45.53515625 48.02734375 C-44.65279297 48.01509766 -43.77042969 48.00285156 -42.86132812 47.99023438 C-40.99926975 47.95515023 -39.1372817 47.91610392 -37.27539062 47.87304688 C-36.39173828 47.86208984 -35.50808594 47.85113281 -34.59765625 47.83984375 C-33.78820557 47.82300537 -32.97875488 47.80616699 -32.14477539 47.78881836 C-30 48 -30 48 -27 50 C-27 50.66 -27 51.32 -27 52 C-25.515 52.495 -25.515 52.495 -24 53 C-23.9767354 61.82377115 -23.95901339 70.64753159 -23.94818783 79.47132683 C-23.94298971 83.56943731 -23.93594843 87.66752667 -23.92456055 91.765625 C-23.91362179 95.72730845 -23.90770008 99.6889717 -23.90512276 103.6506691 C-23.90328818 105.15517621 -23.89970609 106.65968234 -23.89426994 108.16418076 C-23.86655208 116.16002028 -23.94634076 124.060109 -25 132 C-24.34 132 -23.68 132 -23 132 C-23 132.66 -23 133.32 -23 134 C-22.13375 133.835 -21.2675 133.67 -20.375 133.5 C-14.28735989 132.8042697 -8.12726715 133 -2 133 C-2 118.15 -2 103.3 -2 88 C-2.33 88 -2.66 88 -3 88 C-3.05834421 83.47922138 -3.09371252 78.95854047 -3.125 74.4375 C-3.14175781 73.16068359 -3.15851563 71.88386719 -3.17578125 70.56835938 C-3.25936491 54.47850511 -3.25936491 54.47850511 2 49 C2.66 49 3.32 49 4 49 C4 49.66 4 50.32 4 51 C11.68897931 50.48594306 19.34855794 49.9234499 27 49 C26.98839844 47.91460937 26.97679687 46.82921875 26.96484375 45.7109375 C26.95545862 44.26562673 26.94635919 42.82031409 26.9375 41.375 C26.92912109 40.66214844 26.92074219 39.94929688 26.91210938 39.21484375 C26.90888672 38.51230469 26.90566406 37.80976562 26.90234375 37.0859375 C26.89710693 36.4470459 26.89187012 35.8081543 26.88647461 35.14990234 C27.03105756 32.41184324 27.54923873 29.70456765 28 27 C20.41 27 12.82 27 5 27 C5 26.34 5 25.68 5 25 C3.02 24.67 1.04 24.34 -1 24 C-1.02887236 20.18751574 -1.04675492 16.3750593 -1.0625 12.5625 C-1.07087891 11.47388672 -1.07925781 10.38527344 -1.08789062 9.26367188 C-1.09111328 8.22919922 -1.09433594 7.19472656 -1.09765625 6.12890625 C-1.10289307 5.17056885 -1.10812988 4.21223145 -1.11352539 3.22485352 C-1 1 -1 1 0 0 Z " fill="#22427C" transform="translate(144,79)"/>
<path d="M0 0 C0.81559387 0.00141495 1.63118774 0.0028299 2.47149658 0.00428772 C5.06957712 0.00987322 7.66757063 0.02242304 10.265625 0.03515625 C12.02994667 0.04017313 13.79426969 0.04473571 15.55859375 0.04882812 C19.87766445 0.05898586 24.19654762 0.07856406 28.515625 0.09765625 C28.515625 9.33765625 28.515625 18.57765625 28.515625 28.09765625 C16.890625 28.41015625 16.890625 28.41015625 13.25927734 28.4855957 C5.40146756 28.66048443 5.40146756 28.66048443 -1.484375 32.09765625 C-6.52887014 38.26785249 -6.14031831 44.82970623 -6.234375 52.53515625 C-6.316875 56.68078125 -6.399375 60.82640625 -6.484375 65.09765625 C4.075625 65.09765625 14.635625 65.09765625 25.515625 65.09765625 C25.515625 67.07765625 25.515625 69.05765625 25.515625 71.09765625 C25.185625 71.09765625 24.855625 71.09765625 24.515625 71.09765625 C24.515625 69.44765625 24.515625 67.79765625 24.515625 66.09765625 C13.955625 66.09765625 3.395625 66.09765625 -7.484375 66.09765625 C-7.71125 61.58078125 -7.938125 57.06390625 -8.171875 52.41015625 C-8.25139404 50.99387939 -8.33091309 49.57760254 -8.4128418 48.1184082 C-8.46093994 46.99394287 -8.50903809 45.86947754 -8.55859375 44.7109375 C-8.61619873 43.56407471 -8.67380371 42.41721191 -8.7331543 41.2355957 C-8.45323422 37.70486676 -7.64448742 35.87940717 -5.484375 33.09765625 C-4.824375 33.09765625 -4.164375 33.09765625 -3.484375 33.09765625 C-2.824375 31.11765625 -2.164375 29.13765625 -1.484375 27.09765625 C0.825625 26.76765625 3.135625 26.43765625 5.515625 26.09765625 C5.185625 24.44765625 4.855625 22.79765625 4.515625 21.09765625 C5.835625 21.09765625 7.155625 21.09765625 8.515625 21.09765625 C9.010625 22.58265625 9.010625 22.58265625 9.515625 24.09765625 C10.4025 23.74703125 11.289375 23.39640625 12.203125 23.03515625 C15.57765626 22.08010023 17.21248652 22.12614493 20.515625 23.09765625 C20.845625 22.43765625 21.175625 21.77765625 21.515625 21.09765625 C21.845625 21.42765625 22.175625 21.75765625 22.515625 22.09765625 C22.515625 18.79765625 22.515625 15.49765625 22.515625 12.09765625 C22.185625 12.09765625 21.855625 12.09765625 21.515625 12.09765625 C21.845625 9.78765625 22.175625 7.47765625 22.515625 5.09765625 C21.731875 5.13890625 20.948125 5.18015625 20.140625 5.22265625 C17.07055886 5.1167919 14.82442796 4.71083893 11.890625 3.97265625 C3.82906746 2.25301992 -3.5714893 3.75809517 -10.484375 8.09765625 C-11.350625 8.26265625 -12.216875 8.42765625 -13.109375 8.59765625 C-15.92204473 9.18979725 -16.57186202 10.02576719 -18.484375 12.09765625 C-19.78375 12.80921875 -19.78375 12.80921875 -21.109375 13.53515625 C-23.64430924 14.86724667 -23.64430924 14.86724667 -24.296875 17.28515625 C-24.3896875 18.18234375 -24.3896875 18.18234375 -24.484375 19.09765625 C-25.144375 19.09765625 -25.804375 19.09765625 -26.484375 19.09765625 C-27.32891856 22.4758305 -27.59282419 24.77230868 -26.484375 28.09765625 C-27.144375 28.09765625 -27.804375 28.09765625 -28.484375 28.09765625 C-28.67 28.87109375 -28.67 28.87109375 -28.859375 29.66015625 C-29.36047265 31.6144371 -29.94104778 33.54826391 -30.546875 35.47265625 C-31.43341469 38.90060971 -31.5623489 41.58883076 -31.484375 45.09765625 C-31.6596875 45.69191406 -31.835 46.28617188 -32.015625 46.8984375 C-32.8220114 50.68173369 -32.00454914 54.4158077 -31.54296875 58.22265625 C-31.48113896 61.25643784 -31.90684555 62.56456236 -33.484375 65.09765625 C-33.814375 65.75765625 -34.144375 66.41765625 -34.484375 67.09765625 C-37.6028075 68.13713375 -39.75913086 68.21260463 -43.02734375 68.1953125 C-44.10048828 68.19208984 -45.17363281 68.18886719 -46.27929688 68.18554688 C-47.39884766 68.17716797 -48.51839844 68.16878906 -49.671875 68.16015625 C-50.80302734 68.15564453 -51.93417969 68.15113281 -53.09960938 68.14648438 C-55.89458427 68.13469123 -58.6894532 68.11823275 -61.484375 68.09765625 C-62.79799198 70.72489021 -62.69691409 72.82376186 -62.80078125 75.76171875 C-62.85794312 77.27693115 -62.85794312 77.27693115 -62.91625977 78.82275391 C-62.98091431 80.75320557 -62.98091431 80.75320557 -63.046875 82.72265625 C-63.19125 86.80640625 -63.335625 90.89015625 -63.484375 95.09765625 C-54.574375 95.09765625 -45.664375 95.09765625 -36.484375 95.09765625 C-36.484375 95.42765625 -36.484375 95.75765625 -36.484375 96.09765625 C-45.724375 96.09765625 -54.964375 96.09765625 -64.484375 96.09765625 C-64.484375 85.86765625 -64.484375 75.63765625 -64.484375 65.09765625 C-55.244375 65.09765625 -46.004375 65.09765625 -36.484375 65.09765625 C-36.50757812 62.98746094 -36.53078125 60.87726563 -36.5546875 58.703125 C-36.57035968 56.62118122 -36.58246111 54.53924444 -36.59423828 52.45727539 C-36.6041924 51.02885923 -36.61776062 49.60046287 -36.63525391 48.17211914 C-36.78301679 35.78176657 -36.56901209 24.70377472 -29.484375 14.09765625 C-28.80375 13.06640625 -28.123125 12.03515625 -27.421875 10.97265625 C-20.21541365 2.72680144 -10.43432279 -0.06828396 0 0 Z " fill="#3C77A6" transform="translate(152.484375,35.90234375)"/>
<path d="M0 0 C0.33 0 0.66 0 1 0 C1 27.39 1 54.78 1 83 C-8.24 83 -17.48 83 -27 83 C-27 56.27 -27 29.54 -27 2 C-22.41322963 8.88015556 -23.85212369 19.20900078 -23.8671875 27.21875 C-23.86623077 28.35727417 -23.86527405 29.49579834 -23.86428833 30.66882324 C-23.86361157 33.06225643 -23.86543047 35.4556915 -23.86962891 37.84912109 C-23.87498426 41.4893002 -23.86966666 45.12935593 -23.86328125 48.76953125 C-23.86394212 51.1067711 -23.86522347 53.44401088 -23.8671875 55.78125 C-23.86516327 56.8575769 -23.86313904 57.93390381 -23.86105347 59.04284668 C-23.88061145 65.42162295 -24.22878457 71.66712849 -25 78 C-24.34 78 -23.68 78 -23 78 C-23 78.66 -23 79.32 -23 80 C-22.13375 79.835 -21.2675 79.67 -20.375 79.5 C-14.28735989 78.8042697 -8.12726715 79 -2 79 C-2 64.15 -2 49.3 -2 34 C-2.33 34 -2.66 34 -3 34 C-2.85973717 31.68715544 -2.71264442 29.37472409 -2.5625 27.0625 C-2.48128906 25.77472656 -2.40007812 24.48695313 -2.31640625 23.16015625 C-2 20 -2 20 -1 19 C-0.84379445 17.58672053 -0.74943827 16.1664541 -0.68359375 14.74609375 C-0.64169922 13.89208984 -0.59980469 13.03808594 -0.55664062 12.15820312 C-0.51732422 11.26037109 -0.47800781 10.36253906 -0.4375 9.4375 C-0.39431641 8.53580078 -0.35113281 7.63410156 -0.30664062 6.70507812 C-0.20021858 4.47021515 -0.09820012 2.23523692 0 0 Z " fill="#061F63" transform="translate(144,133)"/>
<path d="M0 0 C0.33 0 0.66 0 1 0 C1 28.05 1 56.1 1 85 C10.9 85 20.8 85 31 85 C31 56.95 31 28.9 31 0 C40.24 0 49.48 0 59 0 C59 0.33 59 0.66 59 1 C50.09 1 41.18 1 32 1 C32 28.72 32 56.44 32 85 C46.19 85 60.38 85 75 85 C75 85.33 75 85.66 75 86 C63.12 86 51.24 86 39 86 C39 86.66 39 87.32 39 88 C19.86 88 0.72 88 -19 88 C-18.505 87.01 -18.505 87.01 -18 86 C-15.32667541 85.68618781 -12.74513902 85.48629358 -10.0625 85.375 C-9.32064453 85.33632812 -8.57878906 85.29765625 -7.81445312 85.2578125 C-5.20917404 85.12554085 -2.60907522 85 0 85 C0 56.95 0 28.9 0 0 Z " fill="#C2D4EC" transform="translate(115,132)"/>
<path d="M0 0 C0.66 1.32 1.32 2.64 2 4 C1.34 4 0.68 4 0 4 C-0.185625 4.7734375 -0.185625 4.7734375 -0.375 5.5625 C-0.87609765 7.51678085 -1.45667278 9.45060766 -2.0625 11.375 C-2.94903969 14.80295346 -3.0779739 17.49117451 -3 21 C-3.1753125 21.59425781 -3.350625 22.18851563 -3.53125 22.80078125 C-4.3376364 26.58407744 -3.52017414 30.31815145 -3.05859375 34.125 C-2.99676396 37.15878159 -3.42247055 38.46690611 -5 41 C-5.33 41.66 -5.66 42.32 -6 43 C-9.1184325 44.0394775 -11.27475586 44.11494838 -14.54296875 44.09765625 C-15.61611328 44.09443359 -16.68925781 44.09121094 -17.79492188 44.08789062 C-18.91447266 44.07951172 -20.03402344 44.07113281 -21.1875 44.0625 C-22.31865234 44.05798828 -23.44980469 44.05347656 -24.61523438 44.04882812 C-27.41020927 44.03703498 -30.2050782 44.0205765 -33 44 C-34.31361698 46.62723396 -34.21253909 48.72610561 -34.31640625 51.6640625 C-34.35451416 52.6742041 -34.39262207 53.6843457 -34.43188477 54.72509766 C-34.47498779 56.01206543 -34.51809082 57.2990332 -34.5625 58.625 C-34.706875 62.70875 -34.85125 66.7925 -35 71 C-26.09 71 -17.18 71 -8 71 C-8 71.33 -8 71.66 -8 72 C-17.24 72 -26.48 72 -36 72 C-36 61.77 -36 51.54 -36 41 C-26.76 41 -17.52 41 -8 41 C-8.02320312 38.84339844 -8.04640625 36.68679687 -8.0703125 34.46484375 C-8.08594777 32.35653267 -8.09807038 30.24822825 -8.10986328 28.13989258 C-8.1198685 26.68413359 -8.13347696 25.22839443 -8.15087891 23.77270508 C-8.17537044 21.6700346 -8.18653794 19.56763176 -8.1953125 17.46484375 C-8.20578613 16.202771 -8.21625977 14.94069824 -8.22705078 13.64038086 C-7.98729536 9.79630232 -7.32948539 6.61268287 -6 3 C-3.4375 1.625 -3.4375 1.625 -1 1 C-0.67 0.67 -0.34 0.34 0 0 Z " fill="#456792" transform="translate(124,60)"/>
<path d="M0 0 C0.33 0 0.66 0 1 0 C1 7.59 1 15.18 1 23 C11.56 23 22.12 23 33 23 C33 36.5 33 36.5 32 42.25 C31.7215625 43.89742187 31.7215625 43.89742187 31.4375 45.578125 C31.293125 46.37734375 31.14875 47.1765625 31 48 C30.34 48 29.68 48 29 48 C28.67 48.99 28.34 49.98 28 51 C24.7 51 21.4 51 18 51 C18 50.67 18 50.34 18 50 C22.455 49.505 22.455 49.505 27 49 C26.98839844 47.91460937 26.97679687 46.82921875 26.96484375 45.7109375 C26.95545862 44.26562673 26.94635919 42.82031409 26.9375 41.375 C26.92912109 40.66214844 26.92074219 39.94929688 26.91210938 39.21484375 C26.90727539 38.16103516 26.90727539 38.16103516 26.90234375 37.0859375 C26.89448853 36.1276001 26.89448853 36.1276001 26.88647461 35.14990234 C27.03105756 32.41184324 27.54923873 29.70456765 28 27 C20.41 27 12.82 27 5 27 C5 26.34 5 25.68 5 25 C3.02 24.67 1.04 24.34 -1 24 C-1.02887236 20.18751574 -1.04675492 16.3750593 -1.0625 12.5625 C-1.07087891 11.47388672 -1.07925781 10.38527344 -1.08789062 9.26367188 C-1.09111328 8.22919922 -1.09433594 7.19472656 -1.09765625 6.12890625 C-1.10289307 5.17056885 -1.10812988 4.21223145 -1.11352539 3.22485352 C-1 1 -1 1 0 0 Z " fill="#25538C" transform="translate(144,79)"/>
<path d="M0 0 C0.66 1.32 1.32 2.64 2 4 C1.34 4 0.68 4 0 4 C-0.12375 4.515625 -0.2475 5.03125 -0.375 5.5625 C-0.87609765 7.51678085 -1.45667278 9.45060766 -2.0625 11.375 C-2.94903969 14.80295346 -3.0779739 17.49117451 -3 21 C-3.17917969 21.59425781 -3.35835938 22.18851563 -3.54296875 22.80078125 C-4.32991772 26.58755279 -3.35251667 30.3386021 -2.765625 34.125 C-3 37 -3 37 -5.51464844 39.1796875 C-6.33481445 39.78039062 -7.15498047 40.38109375 -8 41 C-8.04975174 36.71331312 -8.0858847 32.42678303 -8.10986328 28.13989258 C-8.1198685 26.68413359 -8.13347696 25.22839443 -8.15087891 23.77270508 C-8.17537044 21.6700346 -8.18653794 19.56763176 -8.1953125 17.46484375 C-8.20578613 16.202771 -8.21625977 14.94069824 -8.22705078 13.64038086 C-7.98729536 9.79630232 -7.32948539 6.61268287 -6 3 C-3.4375 1.625 -3.4375 1.625 -1 1 C-0.67 0.67 -0.34 0.34 0 0 Z " fill="#3A6795" transform="translate(124,60)"/>
<path d="M0 0 C0.33 0 0.66 0 1 0 C1 20.46 1 40.92 1 62 C-6.92 62 -14.84 62 -23 62 C-23.495 60.515 -23.495 60.515 -24 59 C-23.34 59 -22.68 59 -22 59 C-22 59.66 -22 60.32 -22 61 C-20.700625 60.7525 -20.700625 60.7525 -19.375 60.5 C-13.28735989 59.8042697 -7.12726715 60 -1 60 C-1 45.15 -1 30.3 -1 15 C-1.33 15 -1.66 15 -2 15 C-1.85973717 12.68715544 -1.71264442 10.37472409 -1.5625 8.0625 C-1.48128906 6.77472656 -1.40007812 5.48695313 -1.31640625 4.16015625 C-1 1 -1 1 0 0 Z " fill="#04207B" transform="translate(143,152)"/>
<path d="M0 0 C4.58677037 6.88015556 3.14787631 17.20900078 3.1328125 25.21875 C3.13376923 26.35727417 3.13472595 27.49579834 3.13571167 28.66882324 C3.13638843 31.06225643 3.13456953 33.4556915 3.13037109 35.84912109 C3.12501574 39.4893002 3.13033334 43.12935593 3.13671875 46.76953125 C3.13605788 49.1067711 3.13477653 51.44401088 3.1328125 53.78125 C3.13483673 54.8575769 3.13686096 55.93390381 3.13894653 57.04284668 C3.11938855 63.42162295 2.77121543 69.66712849 2 76 C1.67 76 1.34 76 1 76 C0.32059525 50.66145528 -0.17139721 25.34832842 0 0 Z " fill="#0B2A7F" transform="translate(117,135)"/>
<path d="M0 0 C9.57 0 19.14 0 29 0 C29 13.5 29 13.5 28 19.25 C27.814375 20.34828125 27.62875 21.4465625 27.4375 22.578125 C27.293125 23.37734375 27.14875 24.1765625 27 25 C26.34 25 25.68 25 25 25 C24.67 25.99 24.34 26.98 24 28 C20.7 28 17.4 28 14 28 C14 27.67 14 27.34 14 27 C16.97 26.67 19.94 26.34 23 26 C23.04898438 25.27554688 23.09796875 24.55109375 23.1484375 23.8046875 C23.55676943 18.52453329 24.21929314 14.00823803 26 9 C26.33 6.36 26.66 3.72 27 1 C18.09 1 9.18 1 0 1 C0 0.67 0 0.34 0 0 Z " fill="#2E4F82" transform="translate(148,102)"/>
<path d="M0 0 C1.65 0 3.3 0 5 0 C4.2575 0.515625 3.515 1.03125 2.75 1.5625 C-1.41805233 5.25691002 -3.65568539 8.49476526 -4.41308594 14.00561523 C-4.61623417 17.48869787 -4.70741069 20.94843631 -4.75 24.4375 C-4.8325 28.583125 -4.915 32.72875 -5 37 C5.56 37 16.12 37 27 37 C27 38.98 27 40.96 27 43 C26.67 43 26.34 43 26 43 C26 41.35 26 39.7 26 38 C15.44 38 4.88 38 -6 38 C-6.226875 33.483125 -6.45375 28.96625 -6.6875 24.3125 C-6.76701904 22.89622314 -6.84653809 21.47994629 -6.9284668 20.02075195 C-6.97656494 18.89628662 -7.02466309 17.77182129 -7.07421875 16.61328125 C-7.13182373 15.46641846 -7.18942871 14.31955566 -7.2487793 13.13793945 C-6.96885922 9.60721051 -6.16011242 7.78175092 -4 5 C-3.34 5 -2.68 5 -2 5 C-1.34 3.35 -0.68 1.7 0 0 Z " fill="#5C7FA0" transform="translate(151,64)"/>
<path d="M0 0 C0.33 0 0.66 0 1 0 C0.67 11.88 0.34 23.76 0 36 C-8.91 36 -17.82 36 -27 36 C-25 34 -25 34 -23.00048828 33.78881836 C-22.19853027 33.80565674 -21.39657227 33.82249512 -20.5703125 33.83984375 C-19.25353516 33.8562793 -19.25353516 33.8562793 -17.91015625 33.87304688 C-16.99105469 33.89431641 -16.07195312 33.91558594 -15.125 33.9375 C-13.31518632 33.97205797 -11.50528101 34.00216849 -9.6953125 34.02734375 C-8.89109863 34.04531006 -8.08688477 34.06327637 -7.25830078 34.08178711 C-5.02886232 34.00104528 -3.13561143 33.6235741 -1 33 C-1.0407666 32.0713916 -1.0815332 31.1427832 -1.12353516 30.18603516 C-1.26965334 26.74600796 -1.4065291 23.3058727 -1.53710938 19.86523438 C-1.59556854 18.37517512 -1.65772629 16.88525624 -1.72363281 15.39550781 C-1.81764056 13.25611936 -1.89840682 11.11658132 -1.9765625 8.9765625 C-2.02893066 7.68830566 -2.08129883 6.40004883 -2.13525391 5.07275391 C-2 2 -2 2 0 0 Z " fill="#E9FBFE" transform="translate(116,65)"/>
<path d="M0 0 C0.33 0 0.66 0 1 0 C1 7.92 1 15.84 1 24 C-2.856875 24.185625 -6.71375 24.37125 -10.6875 24.5625 C-11.89494873 24.62381104 -13.10239746 24.68512207 -14.34643555 24.74829102 C-15.78950073 24.81294556 -15.78950073 24.81294556 -17.26171875 24.87890625 C-18.24100342 24.9260376 -19.22028809 24.97316895 -20.22924805 25.02172852 C-22.95792705 25.00032994 -25.35079063 24.62794508 -28 24 C-24.71252584 21.80835056 -23.51505175 21.71320614 -19.67578125 21.5859375 C-18.64775391 21.54726563 -17.61972656 21.50859375 -16.56054688 21.46875 C-15.48869141 21.4378125 -14.41683594 21.406875 -13.3125 21.375 C-12.22904297 21.33632813 -11.14558594 21.29765625 -10.02929688 21.2578125 C-7.35303533 21.16349491 -4.67678157 21.07789995 -2 21 C-2 20.34 -2 19.68 -2 19 C-1.34 19 -0.68 19 0 19 C0 12.73 0 6.46 0 0 Z " fill="#38698F" transform="translate(179,40)"/>
<path d="M0 0 C11.55 0 23.1 0 35 0 C35 8.91 35 17.82 35 27 C34.67 27 34.34 27 34 27 C33.67 25.35 33.34 23.7 33 22 C32.67 22 32.34 22 32 22 C31.505 12.595 31.505 12.595 31 3 C28.15464275 1.57732138 25.63781448 1.78028131 22.4609375 1.68359375 C21.15898437 1.64169922 19.85703125 1.59980469 18.515625 1.55664062 C17.13541955 1.51682701 15.75521117 1.47711478 14.375 1.4375 C12.98696585 1.39430593 11.59894472 1.35069135 10.2109375 1.30664062 C6.80739744 1.20028 3.40378222 1.09825286 0 1 C0 0.67 0 0.34 0 0 Z " fill="#487695" transform="translate(146,37)"/>
<path d="M0 0 C0.89871826 0.00141495 1.79743652 0.0028299 2.72338867 0.00428772 C5.56562775 0.00984042 8.40778513 0.02238388 11.25 0.03515625 C13.18880094 0.04017737 15.12760312 0.0447392 17.06640625 0.04882812 C21.79430183 0.05979431 26.52213711 0.07702581 31.25 0.09765625 C31.25 0.42765625 31.25 0.75765625 31.25 1.09765625 C21.35 1.42765625 11.45 1.75765625 1.25 2.09765625 C1.25 2.42765625 1.25 2.75765625 1.25 3.09765625 C-5.35 3.09765625 -11.95 3.09765625 -18.75 3.09765625 C-18.42 2.43765625 -18.09 1.77765625 -17.75 1.09765625 C-11.82942686 0.03652411 -6.0005032 -0.03619995 0 0 Z " fill="#D9DEEB" transform="translate(114.75,216.90234375)"/>
<path d="M0 0 C3.96 0 7.92 0 12 0 C11.67 0.66 11.34 1.32 11 2 C9.1875 2.37890625 9.1875 2.37890625 7 2.5625 C4.21067942 2.62665408 4.21067942 2.62665408 2 4 C1.83976438 6.88252645 1.74045971 9.74378527 1.68359375 12.62890625 C1.66281265 13.49313705 1.64203156 14.35736786 1.62062073 15.24778748 C1.55502886 18.01927445 1.49619582 20.79085921 1.4375 23.5625 C1.39432392 25.43685923 1.35070994 27.31120843 1.30664062 29.18554688 C1.19933773 33.79026336 1.09809785 38.39507858 1 43 C0.67 43 0.34 43 0 43 C0 28.81 0 14.62 0 0 Z " fill="#ECFCFE" transform="translate(147,133)"/>
<path d="M0 0 C1.08809212 0.03541649 1.08809212 0.03541649 2.19816589 0.07154846 C4.5008217 0.14773945 6.80310264 0.23195328 9.10546875 0.31640625 C10.67250808 0.36967166 12.23956536 0.42241171 13.80664062 0.47460938 C17.63565123 0.60329367 21.46434616 0.73917087 25.29296875 0.87890625 C25.29296875 1.20890625 25.29296875 1.53890625 25.29296875 1.87890625 C23.98477173 1.90078003 23.98477173 1.90078003 22.65014648 1.9230957 C19.38636879 1.98447997 16.12338918 2.05869013 12.86010742 2.14135742 C11.45299095 2.17442619 10.04574759 2.20251329 8.63842773 2.2253418 C6.60476051 2.25922424 4.5722374 2.31154843 2.5390625 2.3671875 C0.70879517 2.40646362 0.70879517 2.40646362 -1.15844727 2.4465332 C-5.27353631 2.94793139 -7.97966093 4.09958196 -11.70703125 5.87890625 C-13.37124475 6.55167341 -15.03689707 7.2209746 -16.70703125 7.87890625 C-16.70703125 4.87890625 -16.70703125 4.87890625 -15.01953125 2.75390625 C-10.58251313 -0.84367601 -5.46668492 -0.21233646 0 0 Z " fill="#CBE2EC" transform="translate(148.70703125,34.12109375)"/>
<path d="M0 0 C0.33 0 0.66 0 1 0 C1.16855008 3.5624135 1.33450772 7.12494324 1.5 10.6875 C1.54769531 11.69490234 1.59539062 12.70230469 1.64453125 13.74023438 C1.71220703 15.20493164 1.71220703 15.20493164 1.78125 16.69921875 C1.82314453 17.59471436 1.86503906 18.49020996 1.90820312 19.4128418 C1.99802806 21.94442388 2.01596803 24.46707188 2 27 C1.01 27.33 0.02 27.66 -1 28 C-1.02891949 23.70834738 -1.04677118 19.41671964 -1.0625 15.125 C-1.07087891 13.90167969 -1.07925781 12.67835937 -1.08789062 11.41796875 C-1.09111328 10.25136719 -1.09433594 9.08476563 -1.09765625 7.8828125 C-1.10289307 6.80402832 -1.10812988 5.72524414 -1.11352539 4.61376953 C-1 2 -1 2 0 0 Z " fill="#D3EDF8" transform="translate(147,73)"/>
<path d="M0 0 C8.91 0 17.82 0 27 0 C21.63353562 2.68323219 17.81239388 3.10388849 11.9375 3 C6.81812237 2.6843647 6.81812237 2.6843647 2 4 C2 3.34 2 2.68 2 2 C1.34 2 0.68 2 0 2 C0 1.34 0 0.68 0 0 Z " fill="#E0F1FC" transform="translate(88,132)"/>
<path d="M0 0 C7.92 0 15.84 0 24 0 C26.25909091 4.51818182 26.25909091 4.51818182 25.25 8.5 C24.97929687 9.62921875 24.97929687 9.62921875 24.703125 10.78125 C24.00006901 12.99978224 23.09844666 14.9520486 22 17 C21.97250234 15.62511713 21.9533836 14.25006609 21.9375 12.875 C21.92589844 12.10929687 21.91429687 11.34359375 21.90234375 10.5546875 C22 8 22 8 23 2 C15.41 2 7.82 2 0 2 C0 1.34 0 0.68 0 0 Z " fill="#23539B" transform="translate(149,104)"/>
<path d="M0 0 C0.33 0 0.66 0 1 0 C1 11.55 1 23.1 1 35 C0.67 35 0.34 35 0 35 C-0.33 28.4 -0.66 21.8 -1 15 C-1.33 15 -1.66 15 -2 15 C-1.85973717 12.68715544 -1.71264442 10.37472409 -1.5625 8.0625 C-1.48128906 6.77472656 -1.40007812 5.48695313 -1.31640625 4.16015625 C-1 1 -1 1 0 0 Z " fill="#052C85" transform="translate(143,152)"/>
<path d="M0 0 C0.81559387 0.00141495 1.63118774 0.0028299 2.47149658 0.00428772 C5.06957712 0.00987322 7.66757063 0.02242304 10.265625 0.03515625 C12.02994667 0.04017313 13.79426969 0.04473571 15.55859375 0.04882812 C19.87763756 0.0598379 24.19661654 0.07709256 28.515625 0.09765625 C28.515625 0.42765625 28.515625 0.75765625 28.515625 1.09765625 C27.5369043 1.11747559 26.55818359 1.13729492 25.54980469 1.15771484 C21.91168903 1.23390249 18.27396647 1.3225992 14.63623047 1.41503906 C13.06306735 1.45327454 11.48981842 1.48813691 9.91650391 1.51953125 C7.65235777 1.56530047 5.38879953 1.62327386 3.125 1.68359375 C2.42381042 1.69514496 1.72262085 1.70669617 1.00018311 1.71859741 C-2.71508114 1.83038282 -5.25449407 2.29441068 -8.484375 4.09765625 C-10.81641312 4.17539085 -13.15276559 4.18733353 -15.484375 4.09765625 C-11.25516808 -0.7659317 -6.06332447 -0.03967942 0 0 Z " fill="#638CA4" transform="translate(152.484375,35.90234375)"/>
<path d="M0 0 C14.19 0 28.38 0 43 0 C43 0.33 43 0.66 43 1 C31.12 1 19.24 1 7 1 C7 1.66 7 2.32 7 3 C4.69 3 2.38 3 0 3 C0 2.01 0 1.02 0 0 Z " fill="#EEF0F0" transform="translate(147,217)"/>
<path d="M0 0 C0.33 0 0.66 0 1 0 C1 9.57 1 19.14 1 29 C0.01 28.67 -0.98 28.34 -2 28 C-1.9278125 26.97261719 -1.855625 25.94523437 -1.78125 24.88671875 C-1.2847936 17.55423502 -0.88712098 10.29636386 -1.0625 2.94140625 C-1 1 -1 1 0 0 Z " fill="#ECFDFE" transform="translate(114,69)"/>
<path d="M0 0 C2 1 2 1 2 1 Z M0.76171875 0.8046875 C2.43911133 0.81435547 2.43911133 0.81435547 4.15039062 0.82421875 C5.90125977 0.84935547 5.90125977 0.84935547 7.6875 0.875 C9.45577148 0.88853516 9.45577148 0.88853516 11.25976562 0.90234375 C14.17338026 0.92593577 17.08658892 0.9588546 20 1 C20.33 1.99 20.66 2.98 21 4 C11.43 3.67 1.86 3.34 -8 3 C-4.55366118 0.70244078 -3.28931609 0.76356024 0.76171875 0.8046875 Z " fill="#EAFCFE" transform="translate(157,32)"/>
<path d="M0 0 C-0.66 1.65 -1.32 3.3 -2 5 C-2.66 5 -3.32 5 -4 5 C-5.61064629 8.65079826 -6.44894091 12.0507432 -7 16 C-7.66 16 -8.32 16 -9 16 C-8.69247033 12.99667836 -8.35215972 9.99838851 -8 7 C-7.896875 6.030625 -7.79375 5.06125 -7.6875 4.0625 C-7 2 -7 2 -5.125 0.6875 C-3 0 -3 0 0 0 Z " fill="#316EA4" transform="translate(151,64)"/>
<path d="M0 0 C0.33 0 0.66 0 1 0 C0.67 11.88 0.34 23.76 0 36 C-0.33 36 -0.66 36 -1 36 C-1.19214323 31.19490042 -1.37088308 26.38956217 -1.53710938 21.58349609 C-1.59558 19.94794282 -1.65773919 18.31251713 -1.72363281 16.67724609 C-1.8176061 14.32933786 -1.89838991 11.98129322 -1.9765625 9.6328125 C-2.00875885 8.89942657 -2.0409552 8.16604065 -2.0741272 7.41043091 C-2.12756428 5.60757645 -2.07280193 3.80217635 -2 2 C-1.34 1.34 -0.68 0.68 0 0 Z " fill="#B9D5E7" transform="translate(116,65)"/>
<path d="M0 0 C6.37936593 -0.36109618 6.37936593 -0.36109618 8.71875 1 C10.75518944 4.17883229 10.31160535 7.54389423 10.1875 11.1875 C10.17396484 11.93708984 10.16042969 12.68667969 10.14648438 13.45898438 C10.11118539 15.30629767 10.05737917 17.15324066 10 19 C9.67 19 9.34 19 9 19 C8.67 15.7 8.34 12.4 8 9 C7.67 9 7.34 9 7 9 C7.33 6.69 7.66 4.38 8 2 C7.05125 2.04125 6.1025 2.0825 5.125 2.125 C2 2 2 2 0 0 Z " fill="#3378AE" transform="translate(167,39)"/>
<path d="M0 0 C0.66 1.32 1.32 2.64 2 4 C1.34 4 0.68 4 0 4 C-0.12375 4.556875 -0.2475 5.11375 -0.375 5.6875 C-1.05976855 8.22114364 -1.99133763 10.57921032 -3 13 C-5 10 -5 10 -4.875 6.5 C-4 3 -4 3 -1.9375 1.0625 C-0.9784375 0.5365625 -0.9784375 0.5365625 0 0 Z " fill="#2F6EAB" transform="translate(124,60)"/>
<path d="M0 0 C1.67642578 0.02030273 1.67642578 0.02030273 3.38671875 0.04101562 C6.13331211 0.07622836 8.87890289 0.12547904 11.625 0.1875 C11.625 0.5175 11.625 0.8475 11.625 1.1875 C10.60345825 1.217229 10.60345825 1.217229 9.5612793 1.24755859 C6.47796083 1.34276983 3.39532351 1.45246466 0.3125 1.5625 C-1.2952832 1.60890625 -1.2952832 1.60890625 -2.93554688 1.65625 C-4.47758789 1.71425781 -4.47758789 1.71425781 -6.05078125 1.7734375 C-7.4725769 1.82056885 -7.4725769 1.82056885 -8.9230957 1.86865234 C-11.6280269 2.0364051 -11.6280269 2.0364051 -14.375 4.1875 C-16.5625 3.8125 -16.5625 3.8125 -18.375 3.1875 C-12.56075788 -0.69886184 -6.80263077 -0.15624417 0 0 Z " fill="#A9C5DA" transform="translate(169.375,63.8125)"/>
<path d="M0 0 C-0.99 0 -1.98 0 -3 0 C-3 0.66 -3 1.32 -3 2 C-3.94875 2.45375 -4.8975 2.9075 -5.875 3.375 C-9.00313679 4.80238254 -9.00313679 4.80238254 -11 7 C-11.99 7 -12.98 7 -14 7 C-13.375 4.625 -13.375 4.625 -12 2 C-9 0.75 -9 0.75 -6 0 C-3.50907189 -1.24546405 -2.58919267 -0.7767578 0 0 Z " fill="#DDF1F8" transform="translate(162,66)"/>
<path d="M0 0 C0.66 0.33 1.32 0.66 2 1 C0.68 4.3 -0.64 7.6 -2 11 C-2.33 11 -2.66 11 -3 11 C-3.33 8.03 -3.66 5.06 -4 2 C-2.68 1.34 -1.36 0.68 0 0 Z " fill="#E9FAFA" transform="translate(118,55)"/>
<path d="M0 0 C0.99 0.99 1.98 1.98 3 3 C2.01 4.485 2.01 4.485 1 6 C0.61500109 7.65549531 0.27206865 9.3222433 0 11 C-0.66 10.67 -1.32 10.34 -2 10 C-2.33333333 8.66666667 -2.66666667 7.33333333 -3 6 C-3.66 5.67 -4.32 5.34 -5 5 C-4.67 4.01 -4.34 3.02 -4 2 C-3.01 2 -2.02 2 -1 2 C-0.67 1.34 -0.34 0.68 0 0 Z " fill="#0B3C9E" transform="translate(142,128)"/>
<path d="M0 0 C0.99 0.33 1.98 0.66 3 1 C2.67 1.66 2.34 2.32 2 3 C1.34 3 0.68 3 0 3 C-0.268125 3.61875 -0.53625 4.2375 -0.8125 4.875 C-2 7 -2 7 -5 9 C-5.33 7.35 -5.66 5.7 -6 4 C-4.02 3.34 -2.04 2.68 0 2 C0 1.34 0 0.68 0 0 Z " fill="#E2F3F9" transform="translate(128,41)"/>
<path d="M0 0 C0.66 0 1.32 0 2 0 C3.70176698 5.78600775 1.6209655 9.85759934 -1 15 C-1.10251672 9.87416389 -1.03590199 5.05002222 0 0 Z " fill="#1C4C96" transform="translate(172,106)"/>
<path d="M0 0 C0.33 1.32 0.66 2.64 1 4 C1.66 3.01 2.32 2.02 3 1 C3 2.98 3 4.96 3 7 C2.38125 7.12375 1.7625 7.2475 1.125 7.375 C-1.19120832 7.87197356 -1.19120832 7.87197356 -3 10 C-2.69201674 8.51988629 -2.378482 7.04092675 -2.0625 5.5625 C-1.88847656 4.73878906 -1.71445313 3.91507813 -1.53515625 3.06640625 C-1 1 -1 1 0 0 Z " fill="#5F8CAB" transform="translate(120,55)"/>
<path d="M0 0 C-1.0625 1.5 -1.0625 1.5 -3 3 C-6.6875 3.1875 -6.6875 3.1875 -10 3 C-6.46873184 -0.69178035 -5.02635024 -1.19045137 0 0 Z " fill="#507DA0" transform="translate(140,41)"/>
<path d="M0 0 C0.99 0 1.98 0 3 0 C3 3.3 3 6.6 3 10 C2.01 10 1.02 10 0 10 C0 6.7 0 3.4 0 0 Z " fill="#EBFBFC" transform="translate(112,133)"/>
<path d="M0 0 C1.57035335 2.49409061 2.0274945 3.70443416 1.75 6.6875 C1.5025 7.450625 1.255 8.21375 1 9 C0.01 9.495 0.01 9.495 -1 10 C-1.125 3.375 -1.125 3.375 0 0 Z " fill="#235B9F" transform="translate(119,89)"/>
<path d="M0 0 C1.65 0 3.3 0 5 0 C4.34 1.32 3.68 2.64 3 4 C1.68 3.67 0.36 3.34 -1 3 C-0.67 2.01 -0.34 1.02 0 0 Z " fill="#F9F8F2" transform="translate(156,68)"/>
</svg>
