<?xml version="1.0" encoding="UTF-8"?>
<svg version="1.1" xmlns="http://www.w3.org/2000/svg" width="250" height="229">
<path d="M0 0 C82.5 0 165 0 250 0 C250 75.57 250 151.14 250 229 C167.5 229 85 229 0 229 C0 153.43 0 77.86 0 0 Z " fill="#40B82C" transform="translate(0,0)"/>
<path d="M0 0 C82.5 0 165 0 250 0 C250 75.57 250 151.14 250 229 C167.5 229 85 229 0 229 C0 153.43 0 77.86 0 0 Z M87.1875 10.625 C86.42687256 10.88297363 85.66624512 11.14094727 84.88256836 11.40673828 C72.74436485 15.69348793 62.11143 22.05768865 52 30 C51.07445312 30.69609375 50.14890625 31.3921875 49.1953125 32.109375 C48.47085938 32.73328125 47.74640625 33.3571875 47 34 C47 34.66 47 35.32 47 36 C46.01 36.33 45.02 36.66 44 37 C44 37.66 44 38.32 44 39 C43.42765625 39.22042969 42.8553125 39.44085938 42.265625 39.66796875 C31.57048845 45.95597145 22.71191209 64.83345948 19 76 C18.55527344 77.13050781 18.11054688 78.26101562 17.65234375 79.42578125 C9.31789579 102.52106607 11.78646132 132.26272218 21.921875 154.3046875 C23.07480198 156.69485164 24.29456022 158.99547518 25.58203125 161.3203125 C27.21413922 164.40468184 28.31371008 166.56854876 27.55029297 170.05200195 C27.28361816 170.77347412 27.01694336 171.49494629 26.7421875 172.23828125 C26.44868408 173.05119629 26.15518066 173.86411133 25.8527832 174.70166016 C25.53011475 175.5632373 25.20744629 176.42481445 24.875 177.3125 C24.21902178 179.11811561 23.56408247 180.92410897 22.91015625 182.73046875 C22.42119873 184.06924072 22.42119873 184.06924072 21.92236328 185.43505859 C20.64896378 188.97617429 19.47502031 192.54628852 18.3125 196.125 C16.95245184 200.26330443 15.50487619 204.29932853 13.8125 208.3125 C11.82898345 213.09060668 10.82371512 217.9059723 10 223 C15.3086448 221.70088781 20.57165986 220.30221131 25.8125 218.75 C26.5353418 218.53674072 27.25818359 218.32348145 28.00292969 218.10375977 C33.60390698 216.43988365 39.17988821 214.70162951 44.75 212.9375 C45.54664063 212.68637451 46.34328125 212.43524902 47.1640625 212.17651367 C50.74589915 211.04460889 54.32033456 209.8984972 57.87890625 208.6953125 C59.01199219 208.32148438 60.14507812 207.94765625 61.3125 207.5625 C62.27800781 207.23378906 63.24351563 206.90507812 64.23828125 206.56640625 C70.08638474 205.36700737 74.70930931 207.56481086 80 209.9375 C91.38293975 215.01738649 102.57641964 217.35068395 115 218 C115.70850098 218.04463379 116.41700195 218.08926758 117.14697266 218.13525391 C147.77947779 219.86893139 175.34297482 208.22450863 198.4375 188.5 C208.55698984 179.07640631 216.46386618 167.64608494 222 155 C222.37511719 154.21238281 222.75023437 153.42476562 223.13671875 152.61328125 C225.65913544 147.2402524 227.56228521 141.75875868 229 136 C229.17063965 135.32380615 229.3412793 134.6476123 229.51708984 133.95092773 C235.06368645 109.66160159 230.68920338 85.93971196 220 64 C219.60039062 63.16082031 219.20078125 62.32164063 218.7890625 61.45703125 C207.05787477 38.61865514 184.18485758 19.82907248 160 12 C159.19304687 11.66871094 158.38609375 11.33742188 157.5546875 10.99609375 C154.77461471 9.91212041 152.02061301 9.15576245 149.125 8.4375 C147.64386719 8.06431641 147.64386719 8.06431641 146.1328125 7.68359375 C138.1620394 5.94433528 130.44118158 5.81678502 122.3125 5.8125 C121.10916016 5.80025391 119.90582031 5.78800781 118.66601562 5.77539062 C107.74889569 5.75769675 97.53147907 7.09558334 87.1875 10.625 Z " fill="#264546" transform="translate(0,0)"/>
<path d="M0 0 C1.62321352 0.32165061 3.24810651 0.63501227 4.875 0.9375 C8.52693252 1.74904056 11.60964175 3.10573669 14.8828125 4.90234375 C17.15737628 6.11946504 17.15737628 6.11946504 20.2734375 7.359375 C41.09142781 16.19886943 58.19899866 33.40389756 69 53 C69.43054688 53.76699219 69.86109375 54.53398438 70.3046875 55.32421875 C78.28880554 70.32543432 81.35392595 85.64667554 81.25 102.5 C81.25773438 103.75425781 81.26546875 105.00851563 81.2734375 106.30078125 C81.24278915 120.93536885 78.14216909 135.1190354 71 148 C70.58105469 148.82757813 70.16210938 149.65515625 69.73046875 150.5078125 C65.88851403 157.9377084 61.20404062 164.46512007 56 171 C55.42378906 171.7321875 54.84757813 172.464375 54.25390625 173.21875 C46.17108754 182.98791218 35.81748044 189.64871792 25 196 C24.38898438 196.39960938 23.77796875 196.79921875 23.1484375 197.2109375 C17.05594868 201.11637905 9.88186933 202.95522214 3 205 C2.33677734 205.20189941 1.67355469 205.40379883 0.99023438 205.61181641 C-11.0432987 209.18262381 -22.51125903 209.54829943 -35 209 C-36.62615234 208.93425781 -36.62615234 208.93425781 -38.28515625 208.8671875 C-51.85862753 207.9476298 -65.21878602 204.18829611 -77.24609375 197.80859375 C-82.86687626 195.21727531 -91.54086436 199.63887702 -96.97314453 201.36572266 C-100.84445021 202.57719605 -104.73682662 203.71907682 -108.625 204.875 C-116.47511974 207.2143101 -124.29151496 209.647997 -132.08447266 212.17138672 C-137.78645484 214 -137.78645484 214 -140 214 C-139.04041073 207.4961172 -137.24487258 201.62418095 -134.9375 195.5 C-131.88202213 187.3802813 -128.8920384 179.24214009 -126 171.0625 C-125.58999756 169.93070313 -125.17999512 168.79890625 -124.75756836 167.6328125 C-124.3838208 166.56933594 -124.01007324 165.50585938 -123.625 164.41015625 C-123.11839844 162.98908569 -123.11839844 162.98908569 -122.6015625 161.53930664 C-121.79200796 158.12202711 -122.3444157 156.18257321 -124.015625 153.16796875 C-124.42296875 152.51441406 -124.8303125 151.86085937 -125.25 151.1875 C-128.85619763 144.8505978 -130.97941153 137.97589678 -133 131 C-133.26256592 130.14994385 -133.52513184 129.2998877 -133.7956543 128.42407227 C-136.24375084 119.80931628 -136.59796925 111.44335952 -136.5625 102.5625 C-136.5620166 101.81599182 -136.5615332 101.06948364 -136.56103516 100.300354 C-136.50337932 87.45648619 -134.99961252 75.94804823 -130 64 C-129.69497559 63.26668457 -129.38995117 62.53336914 -129.07568359 61.77783203 C-124.95544163 52.21107157 -119.58628398 44.0694548 -113 36 C-112.20335937 34.97519531 -112.20335937 34.97519531 -111.390625 33.9296875 C-110.31756403 32.57258098 -109.1690618 31.27534014 -108 30 C-107.34 30 -106.68 30 -106 30 C-105.67 29.01 -105.34 28.02 -105 27 C-104.34 27 -103.68 27 -103 27 C-102.505 25.515 -102.505 25.515 -102 24 C-89.39622893 13.09888005 -74.57077244 5.25320038 -58.75 0.1875 C-58.11304199 -0.0194751 -57.47608398 -0.2264502 -56.81982422 -0.43969727 C-39.46882157 -5.74052455 -17.25537217 -5.0192906 0 0 Z M-87 34 C-88.10601562 34.87591797 -88.10601562 34.87591797 -89.234375 35.76953125 C-90.87530002 37.11837162 -92.44713032 38.55065496 -94 40 C-94 40.66 -94 41.32 -94 42 C-94.87011719 42.34417969 -94.87011719 42.34417969 -95.7578125 42.6953125 C-103.78387906 47.36553241 -108.30636818 58.86982458 -112 67 C-112.69802734 68.48693359 -112.69802734 68.48693359 -113.41015625 70.00390625 C-118.24730636 80.82050722 -119.16284318 90.83194126 -119.25 102.5625 C-119.25942627 103.52003174 -119.26885254 104.47756348 -119.27856445 105.46411133 C-119.19496364 123.89256921 -113.08581421 138.87127869 -103 154 C-103.91269847 160.73115123 -106.37382861 166.80271978 -108.81298828 173.09838867 C-110.69799704 178.01750285 -112.07179707 182.80206357 -113 188 C-107.272758 186.50751956 -101.5972513 184.89543432 -95.95800781 183.1003418 C-82.04302967 178.67240396 -82.04302967 178.67240396 -77 178 C-74.625 179.375 -74.625 179.375 -73 181 C-72.01 181 -71.02 181 -70 181 C-70 181.66 -70 182.32 -70 183 C-48.05745563 193.88207485 -21.75128755 195.23027191 1.4921875 187.8984375 C21.84732207 180.47480018 41.94412181 166.75767616 52 147 C52 146.34 52 145.68 52 145 C52.66 145 53.32 145 54 145 C56.5547952 139.06259887 58.72406295 133.02916374 60.6875 126.875 C60.90172607 126.21886719 61.11595215 125.56273437 61.33666992 124.88671875 C67.96401521 103.71302411 64.13123648 80.73978592 54.08618164 61.37207031 C51.23095915 56.14139359 47.93919501 51.47758157 44 47 C43.42378906 46.30519531 42.84757813 45.61039063 42.25390625 44.89453125 C36.14482281 37.64254579 29.20648834 32.2349262 21.25 27.125 C20.49589844 26.62742187 19.74179688 26.12984375 18.96484375 25.6171875 C18.23910156 25.14796875 17.51335937 24.67875 16.765625 24.1953125 C15.78770996 23.56133545 15.78770996 23.56133545 14.79003906 22.91455078 C12.88976908 21.77251509 12.88976908 21.77251509 10 22 C10 21.34 10 20.68 10 20 C6.9595402 19.18293833 3.91743317 18.3721798 0.875 17.5625 C0.0190625 17.33240234 -0.836875 17.10230469 -1.71875 16.86523438 C-2.55664062 16.64287109 -3.39453125 16.42050781 -4.2578125 16.19140625 C-5.0223877 15.98717041 -5.78696289 15.78293457 -6.57470703 15.57250977 C-35.40975262 8.76576707 -64.10306535 15.7932439 -87 34 Z " fill="#F8FAF8" transform="translate(150,9)"/>
<path d="M0 0 C3.1337997 6.07375612 6.17280631 12.18587523 8.9375 18.4375 C9.56978516 19.85869141 9.56978516 19.85869141 10.21484375 21.30859375 C11.12645118 24.43345702 11.07694265 25.94128617 10 29 C8.26075232 31.3475761 6.35827397 33.45597797 4.3984375 35.62109375 C2.74821523 37.96217182 2.74821523 37.96217182 3.0234375 40.9375 C4.18057847 44.56629407 5.77248225 46.67889904 8.25 49.5625 C9.01828125 50.47128906 9.7865625 51.38007812 10.578125 52.31640625 C18.47886325 61.07093396 28.34694819 70.74031721 40.48828125 72.5078125 C44.20238568 72.32842992 44.20238568 72.32842992 46.66015625 69.33984375 C47.48276747 68.2214622 48.28323203 67.08650302 49.0625 65.9375 C50.60959076 63.6635542 52.02337069 61.97662931 54 60 C59.7961625 59.59581656 65.70986382 63.4990483 70.8125 66 C71.77865234 66.4640625 72.74480469 66.928125 73.74023438 67.40625 C80.83784014 70.83784014 80.83784014 70.83784014 82 72 C82.66313939 77.94274919 82.0286315 82.75037206 79 88 C71.78952119 95.04660429 64.52026134 98.2786331 54.41040039 98.23242188 C49.46819162 97.75587141 44.85736876 95.98529957 40.1875 94.375 C39.17107422 94.04371094 38.15464844 93.71242188 37.10742188 93.37109375 C11.45139338 84.70462141 -9.508253 64.74866253 -21.8125 40.75 C-25.98827728 32.25592745 -28.00807454 23.47245455 -25.125 14.1796875 C-23.92965665 11.60812647 -22.59665768 9.3417646 -21 7 C-20.30777344 5.92492187 -20.30777344 5.92492187 -19.6015625 4.828125 C-14.43416741 -1.72948298 -7.73657928 -0.67601178 0 0 Z " fill="#F9FCF8" transform="translate(95,64)"/>
<path d="M0 0 C3.3 0 6.6 0 10 0 C10 0.66 10 1.32 10 2 C10.99 2.33 11.98 2.66 13 3 C15 6 15 6 15 9 C14.34 9 13.68 9 13 9 C13 9.99 13 10.98 13 12 C12.34 12 11.68 12 11 12 C11 12.66 11 13.32 11 14 C10.01 14.495 10.01 14.495 9 15 C9 16.65 9 18.3 9 20 C9.928125 18.5459375 9.928125 18.5459375 10.875 17.0625 C13 14 13 14 15 13 C13.8905928 16.48670834 12.73662334 19.77484237 11 23 C13.08577504 24.28795906 13.08577504 24.28795906 16 23.5 C19 23 19 23 21 24 C21 23.34 21 22.68 21 22 C20.01 21.67 19.02 21.34 18 21 C17.67 19.02 17.34 17.04 17 15 C19.44971624 13.77514188 21.14234461 13.83277192 23.875 13.8125 C25.17050781 13.79123047 25.17050781 13.79123047 26.4921875 13.76953125 C29.1241288 14.01140748 30.73980544 14.67016459 33 16 C29.73086376 17.03115279 27.13958652 16.9638984 23.75 16.5625 C22.85796875 16.46066406 21.9659375 16.35882812 21.046875 16.25390625 C20.37140625 16.17011719 19.6959375 16.08632813 19 16 C20.51947499 19.36748512 21.52100842 20.60840337 25 22 C25 22.66 25 23.32 25 24 C26.65 24.33 28.3 24.66 30 25 C29.67 25.66 29.34 26.32 29 27 C25.37 26.34 21.74 25.68 18 25 C18.495 25.78375 18.99 26.5675 19.5 27.375 C21 30 21 30 21 32 C24.465 32.495 24.465 32.495 28 33 C28 33.66 28 34.32 28 35 C28.66 35 29.32 35 30 35 C29.67 36.32 29.34 37.64 29 39 C29.99 39 30.98 39 32 39 C30.34784004 42.57967992 28.26875648 45.77982952 26 49 C25.67 49 25.34 49 25 49 C25 47.35 25 45.7 25 44 C19.39 43.01 13.78 42.02 8 41 C7.505 39.515 7.505 39.515 7 38 C5.906875 38.020625 4.81375 38.04125 3.6875 38.0625 C-0 38 -0 38 -3 37 C-3 26.11 -3 15.22 -3 4 C-2.01 3.67 -1.02 3.34 0 3 C0 2.01 0 1.02 0 0 Z " fill="#2A4D4D" transform="translate(3,8)"/>
<path d="M0 0 C0.33 0 0.66 0 1 0 C1.76173392 4.3164922 2.16063604 7.74433453 1 12 C0.34 12 -0.32 12 -1 12 C-0.9278125 12.62648437 -0.855625 13.25296875 -0.78125 13.8984375 C-0.6884375 14.71570313 -0.595625 15.53296875 -0.5 16.375 C-0.4071875 17.18710938 -0.314375 17.99921875 -0.21875 18.8359375 C0 21 0 21 0 23 C2.475 23.99 2.475 23.99 5 25 C5 25.66 5 26.32 5 27 C5.94359375 26.69964844 6.8871875 26.39929688 7.859375 26.08984375 C16.6437231 23.43488573 25.27640571 21.35816295 34.20703125 24.8671875 C36 26 36 26 38 29 C41.17638109 31.11758739 41.68476711 31.19945359 45.25 31 C49.62650314 30.90718672 52.90971018 31.41396925 57 33 C57.66 33.99 58.32 34.98 59 36 C62.92937365 36.87691303 66.98433401 36.8551727 71 37 C72.29292969 37.05285156 73.58585937 37.10570312 74.91796875 37.16015625 C81.66935658 37.31344541 85.98972653 37.25342439 92 34 C92.99 34 93.98 34 95 34 C97.15028304 33.05021103 97.15028304 33.05021103 99 32 C99 31.67 99 31.34 99 31 C100.5159375 31.0309375 100.5159375 31.0309375 102.0625 31.0625 C105.80327257 31.00312266 109.31244898 30.60204915 113 30 C113 29.34 113 28.68 113 28 C113.66 28 114.32 28 115 28 C115 27.01 115 26.02 115 25 C117.31 24.67 119.62 24.34 122 24 C122.33 22.68 122.66 21.36 123 20 C124.65 19.67 126.3 19.34 128 19 C128.33 18.01 128.66 17.02 129 16 C130.11375 15.54625 131.2275 15.0925 132.375 14.625 C136.43765799 12.80380849 136.93863713 11.74793248 139 8 C143.24137931 5 143.24137931 5 146 5 C145.67 3.68 145.34 2.36 145 1 C146.32 1 147.64 1 149 1 C147.51886908 5.98030271 144.62307667 8.84287491 141 12.375 C140.1188855 13.23871216 140.1188855 13.23871216 139.2199707 14.11987305 C121.04449795 31.62263814 96.79871946 40.5638844 71.72363281 40.42333984 C57.93709256 40.03554394 44.38254163 37.14093528 32 31 C32 30.34 32 29.68 32 29 C31.21625 28.87625 30.4325 28.7525 29.625 28.625 C27 28 27 28 25 26 C17.46637873 27.21833384 10.29611129 29.74325248 3.0625 32.125 C0.82507167 32.85937455 -1.41316942 33.591279 -3.65234375 34.3203125 C-4.63195068 34.64273926 -5.61155762 34.96516602 -6.62084961 35.29736328 C-9 36 -9 36 -11 36 C-9.31267298 28.38645125 -7.03308979 21.29907868 -4.13671875 14.0625 C-2.65896276 10.08119177 -1.8186567 6.1615049 -1 2 C-0.67 1.34 -0.34 0.68 0 0 Z " fill="#7ACD64" transform="translate(48,161)"/>
<path d="M0 0 C1.02738281 0.28617188 2.05476563 0.57234375 3.11328125 0.8671875 C5.42472676 1.53856172 7.7157642 2.24217118 10 3 C10 3.66 10 4.32 10 5 C10.52980469 5.08765625 11.05960937 5.1753125 11.60546875 5.265625 C23.54181006 8.92636263 35.5573575 19.35213009 43 29 C40 30 40 30 38 30 C37.46375 28.906875 36.9275 27.81375 36.375 26.6875 C34.27470525 22.95532156 32.030914 21.55739859 28 20 C28 19.34 28 18.68 28 18 C27.34 18 26.68 18 26 18 C25 17 24 16 23 15 C20.96767758 13.80400932 20.96767758 13.80400932 18.8125 12.8125 C18.09707031 12.46832031 17.38164062 12.12414063 16.64453125 11.76953125 C16.10183594 11.51558594 15.55914062 11.26164062 15 11 C15 10.34 15 9.68 15 9 C13.12577848 8.51779737 11.25058246 8.03938167 9.375 7.5625 C7.80878906 7.16224609 7.80878906 7.16224609 6.2109375 6.75390625 C3.15108876 6.03547461 0.1051949 5.48023284 -3 5 C-3 4.01 -3 3.02 -3 2 C-3.75925781 2.01160156 -4.51851563 2.02320313 -5.30078125 2.03515625 C-6.29464844 2.04417969 -7.28851563 2.05320312 -8.3125 2.0625 C-9.29863281 2.07410156 -10.28476563 2.08570313 -11.30078125 2.09765625 C-14 2 -14 2 -17 1 C-17 0.34 -17 -0.32 -17 -1 C-17.99 -0.67 -18.98 -0.34 -20 0 C-22.71362066 -0.00573704 -25.4133598 -0.05271291 -28.125 -0.125 C-34.71756718 -0.2309831 -39.874645 0.32711782 -46 3 C-46.495 2.505 -46.495 2.505 -47 2 C-52.07628122 3.32424728 -56.82652648 5.07721184 -61.66796875 7.09765625 C-64 8 -64 8 -66.0859375 8.47265625 C-68.28957599 9.07978114 -69.62533974 9.99390789 -71.4375 11.375 C-74.208722 13.43277974 -77.02436143 15.24513623 -80 17 C-80.99 17.70125 -81.98 18.4025 -83 19.125 C-85.83301344 20.8956334 -87.72417353 21.61460865 -91 22 C-85.90530794 15.01299374 -79.41095978 11.18303577 -72 7 C-71.20851563 6.52433594 -70.41703125 6.04867187 -69.6015625 5.55859375 C-49.25863558 -5.82630745 -21.99241796 -6.31606311 0 0 Z " fill="#7ECF6A" transform="translate(150,26)"/>
<path d="M0 0 C-0.99 0.33 -1.98 0.66 -3 1 C0.10540926 2.21081851 0.10540926 2.21081851 4 2 C6.140625 4.08203125 6.140625 4.08203125 8.25 6.8125 C8.95640625 7.70582031 9.6628125 8.59914062 10.390625 9.51953125 C12 12 12 12 12 15 C7.89606988 15.11591764 3.79255894 15.18715601 -0.3125 15.25 C-1.47974609 15.28351563 -2.64699219 15.31703125 -3.84960938 15.3515625 C-5.52700195 15.37089844 -5.52700195 15.37089844 -7.23828125 15.390625 C-8.26993408 15.41157227 -9.30158691 15.43251953 -10.36450195 15.45410156 C-13 15 -13 15 -14.86010742 13.10058594 C-16 11 -16 11 -16 9 C-16.66 9 -17.32 9 -18 9 C-18.33 8.01 -18.66 7.02 -19 6 C-21.31 6.33 -23.62 6.66 -26 7 C-22.51030272 4.67353515 -18.97180475 3.6283347 -15 2.4375 C-13.56246248 1.99882085 -12.12496109 1.56002329 -10.6875 1.12109375 C-9.470625 0.75113281 -8.25375 0.38117188 -7 0 C-3.86650268 -1.04449911 -3.01031744 -0.93423645 0 0 Z " fill="#2A504E" transform="translate(44,214)"/>
<path d="M0 0 C4.95 0 9.9 0 15 0 C15.33 1.65 15.66 3.3 16 5 C17.134375 4.979375 18.26875 4.95875 19.4375 4.9375 C23 5 23 5 24 6 C24.10475868 7.62375955 24.18402562 9.24920271 24.25 10.875 C24.41759045 13.56875867 24.41759045 13.56875867 25 16 C27.37255115 18.21306951 27.37255115 18.21306951 30 19 C29.195625 19.53625 28.39125 20.0725 27.5625 20.625 C24.49084195 23.47190259 24.34709264 24.92166153 24 29 C23.67 29.99 23.34 30.98 23 32 C22.30132812 32.02578125 21.60265625 32.0515625 20.8828125 32.078125 C19.97273438 32.13484375 19.06265625 32.1915625 18.125 32.25 C17.22007812 32.29640625 16.31515625 32.3428125 15.3828125 32.390625 C14.20332031 32.69226562 14.20332031 32.69226562 13 33 C11.83638482 34.95215345 11.83638482 34.95215345 11 37 C9.515 37.495 9.515 37.495 8 38 C9.45867555 34.59642372 10.99834751 32.21174394 14 30 C16.75765038 29.66189727 19.20473086 29.81364872 22 30 C21.7525 29.319375 21.505 28.63875 21.25 27.9375 C20.8826336 23.6209448 22.67348716 21.59551985 25 18 C24.34 18 23.68 18 23 18 C22.34 17.34 21.68 16.68 21 16 C20.85304687 16.68707031 20.70609375 17.37414062 20.5546875 18.08203125 C18.72673046 25.42537592 18.72673046 25.42537592 15.3125 28.125 C10.52651094 29.38922353 6.22714309 29.89085724 1.5 28 C1.005 27.67 0.51 27.34 0 27 C0 26.34 0 25.68 0 25 C-0.99 24.67 -1.98 24.34 -3 24 C-3.6875 21.9375 -3.6875 21.9375 -4 20 C-2.02 20.99 -2.02 20.99 0 22 C0 22.66 0 23.32 0 24 C2.96178773 25.67110042 5.37071192 26.32682752 8.75 26.625 C9.54921875 26.69976563 10.3484375 26.77453125 11.171875 26.8515625 C11.77515625 26.90054687 12.3784375 26.94953125 13 27 C13 26.34 13 25.68 13 25 C13.47953125 24.5565625 13.9590625 24.113125 14.453125 23.65625 C16.39712956 21.57479057 16.50682849 20.30582515 16.75 17.5 C16.86601562 16.33984375 16.86601562 16.33984375 16.984375 15.15625 C17.11746641 12.81390957 17.11746641 12.81390957 16 10 C11.41748291 7.98369248 4.67073058 8.44308981 0 10 C0 9.34 0 8.68 0 8 C4.67525312 5.43615152 8.95043132 5.87988101 14 7 C16.27734375 8.046875 16.27734375 8.046875 18 9 C18 8.34 18 7.68 18 7 C17.38125 6.731875 16.7625 6.46375 16.125 6.1875 C14 5 14 5 12 2 C10.20741442 2.08693141 8.41584856 2.19510504 6.625 2.3125 C5.12839844 2.39951172 5.12839844 2.39951172 3.6015625 2.48828125 C2.74304688 2.65714844 1.88453125 2.82601563 1 3 C0.01 4.485 0.01 4.485 -1 6 C-1.66 6 -2.32 6 -3 6 C-3 5.34 -3 4.68 -3 4 C-2.34 4 -1.68 4 -1 4 C-0.67 2.68 -0.34 1.36 0 0 Z " fill="#2C4D4E" transform="translate(216,0)"/>
<path d="M0 0 C0.66 0 1.32 0 2 0 C0.90783114 2.77242864 -0.2025555 5.37394862 -1.625 8 C-4.77115176 15.47616474 -3.81357947 23.83157204 -0.875 31.1875 C3.95080573 41.47444162 10.09307497 50.3825722 17.65625 58.85546875 C18.83554111 60.18217125 19.92944169 61.5841003 21 63 C20.67 63.99 20.34 64.98 20 66 C17.625 65.6875 17.625 65.6875 15 65 C14.34 64.01 13.68 63.02 13 62 C12.34 61.67 11.68 61.34 11 61 C8.91894591 58.65881415 7.96416733 56.8880229 7 53.875 C6.22470344 50.71384124 6.22470344 50.71384124 3 49 C2.3125 46.375 2.3125 46.375 2 44 C1.01 43.67 0.02 43.34 -1 43 C-1.625 41.14453125 -1.625 41.14453125 -2 38.8125 C-2.76202471 34.7846551 -4.01970319 31.61619418 -6 28 C-6.90650749 25.28047752 -7.64484971 22.84120234 -8 20 C-7.01 18.515 -7.01 18.515 -6 17 C-6.66 17 -7.32 17 -8 17 C-7.14285714 8.42857143 -7.14285714 8.42857143 -5 5 C-4.67 5.66 -4.34 6.32 -4 7 C-2.68 4.69 -1.36 2.38 0 0 Z " fill="#2F9B28" transform="translate(73,69)"/>
<path d="M0 0 C12.58174118 11.05668164 19.91702609 30.05637998 21.19970703 46.57128906 C21.90543375 62.81776777 21.90543375 62.81776777 19 70 C18.67 70 18.34 70 18 70 C18 60.43 18 50.86 18 41 C17.34 41 16.68 41 16 41 C15.95101562 40.36191406 15.90203125 39.72382812 15.8515625 39.06640625 C15.77679688 38.24011719 15.70203125 37.41382813 15.625 36.5625 C15.55539063 35.73878906 15.48578125 34.91507813 15.4140625 34.06640625 C15.27742187 33.38449219 15.14078125 32.70257813 15 32 C14.34 31.67 13.68 31.34 13 31 C13 29.02 13 27.04 13 25 C12.34 25 11.68 25 11 25 C10.9175 24.0925 10.835 23.185 10.75 22.25 C9.87352012 18.45192053 8.72948904 17.66520759 6 15 C4.86043639 13.39258803 3.77629879 11.74448968 2.75 10.0625 C2.22921875 9.22847656 1.7084375 8.39445312 1.171875 7.53515625 C-0.09925343 4.78528175 -0.23544115 2.99117275 0 0 Z " fill="#439F39" transform="translate(193,56)"/>
<path d="M0 0 C2.31 0 4.62 0 7 0 C7.33 1.32 7.66 2.64 8 4 C9.11375 3.814375 9.11375 3.814375 10.25 3.625 C13 4 13 4 15.125 6.6875 C15.74375 7.780625 16.3625 8.87375 17 10 C17.86625 11.36125 17.86625 11.36125 18.75 12.75 C20 15 20 15 20 17 C20.99 17.33 21.98 17.66 23 18 C23 18.66 23 19.32 23 20 C23.66 20.33 24.32 20.66 25 21 C23.203125 21.66333008 23.203125 21.66333008 21 22 C19.359375 20.9675293 19.359375 20.9675293 17.75 19.38671875 C14.09196999 16.01240055 10.23242798 13.41114591 6 10.8125 C4.99066406 10.17538086 4.99066406 10.17538086 3.9609375 9.52539062 C-0.23677874 6.9200513 -4.41208851 4.83396983 -9 3 C-8.34 2.34 -7.68 1.68 -7 1 C-3.375 1.375 -3.375 1.375 0 2 C0 1.34 0 0.68 0 0 Z " fill="#385353" transform="translate(173,11)"/>
<path d="M0 0 C2.475 0.495 2.475 0.495 5 1 C5 1.66 5 2.32 5 3 C7.31 3.33 9.62 3.66 12 4 C12.67364661 6.08108685 13.33866798 8.1649671 14 10.25 C14.37125 11.41015625 14.7425 12.5703125 15.125 13.765625 C16 17 16 17 16 21 C12.7 21 9.4 21 6 21 C0.44419134 7.55125285 0.44419134 7.55125285 0 0 Z " fill="#284B4B" transform="translate(70,208)"/>
<path d="M0 0 C1.32 0.33 2.64 0.66 4 1 C4.68707555 3.49064888 5 5.37886292 5 8 C4.484375 8.639375 3.96875 9.27875 3.4375 9.9375 C1.73843392 11.87095494 1.73843392 11.87095494 2.3125 14.0625 C2.539375 14.701875 2.76625 15.34125 3 16 C3 16.99 3 17.98 3 19 C1.68 19.33 0.36 19.66 -1 20 C-1 19.01 -1 18.02 -1 17 C-1.99 17.33 -2.98 17.66 -4 18 C-3.38722388 20.96175123 -2.74627478 22.38058783 -1 25 C2.05429073 26.21284876 2.05429073 26.21284876 5 27 C4.34 28.32 3.68 29.64 3 31 C3.66 31.33 4.32 31.66 5 32 C5 32.99 5 33.98 5 35 C1.06255013 33.45024856 -1.02087481 30.97639609 -3.6875 27.75 C-4.47511719 26.81671875 -5.26273437 25.8834375 -6.07421875 24.921875 C-8.17780913 21.73022063 -8.96934408 19.81666199 -9 16 C-7.63671875 13.69140625 -7.63671875 13.69140625 -5.6875 11.5625 C-2.41182665 7.71260503 -0.94571004 4.938708 0 0 Z " fill="#25A319" transform="translate(106,86)"/>
<path d="M0 0 C1.85625 0.0309375 1.85625 0.0309375 3.75 0.0625 C3 2 3 2 1.75 4.0625 C-0.375 4.8125 -0.375 4.8125 -2.25 5.0625 C-0.63731308 7.77474618 0.99901874 10.43602812 2.75 13.0625 C-1.54 13.0625 -5.83 13.0625 -10.25 13.0625 C-10.25 10.0925 -10.25 7.1225 -10.25 4.0625 C-11.68472656 4.15789062 -13.11945313 4.25328125 -14.59765625 4.3515625 C-16.50256724 4.46416808 -18.40751741 4.57611231 -20.3125 4.6875 C-21.25544922 4.75195312 -22.19839844 4.81640625 -23.16992188 4.8828125 C-28.7033965 5.19129889 -33.02799117 4.96009544 -38.25 3.0625 C-38.25 2.7325 -38.25 2.4025 -38.25 2.0625 C-36.9182373 2.02491577 -36.9182373 2.02491577 -35.55957031 1.98657227 C-32.25703963 1.89128203 -28.95467541 1.79205793 -25.65234375 1.69018555 C-24.22465612 1.64694682 -22.79692046 1.60526415 -21.36914062 1.56518555 C-19.31365504 1.50721398 -17.25840872 1.44359825 -15.203125 1.37890625 C-13.34929199 1.32391968 -13.34929199 1.32391968 -11.45800781 1.26782227 C-7.51606882 1.01552617 -3.96195752 -0.06603263 0 0 Z " fill="#274C4C" transform="translate(144.25,215.9375)"/>
<path d="M0 0 C1.8871875 0.0309375 1.8871875 0.0309375 3.8125 0.0625 C3.8125 0.7225 3.8125 1.3825 3.8125 2.0625 C5.1325 1.7325 6.4525 1.4025 7.8125 1.0625 C8.1425 2.0525 8.4725 3.0425 8.8125 4.0625 C7.92175781 4.1140625 7.03101563 4.165625 6.11328125 4.21875 C1.82334208 5.31534983 0.64153956 7.0704477 -2 10.5625 C-3.15435547 12.06296875 -3.15435547 12.06296875 -4.33203125 13.59375 C-5.25048828 14.81578125 -5.25048828 14.81578125 -6.1875 16.0625 C-7.1875 17.0625 -7.1875 17.0625 -10.25 17.375 C-14.79609591 17.01419874 -18.56835158 15.92250997 -22.1875 13.0625 C-22.9140625 10.921875 -22.9140625 10.921875 -23.1875 9.0625 C-19.80042998 8.28831257 -16.66088282 7.68699915 -13.1875 8.0625 C-12.1975 9.5475 -12.1975 9.5475 -11.1875 11.0625 C-10.1975 11.3925 -9.2075 11.7225 -8.1875 12.0625 C-7.5275 11.7325 -6.8675 11.4025 -6.1875 11.0625 C-5.8575 10.0725 -5.5275 9.0825 -5.1875 8.0625 C-4.5275 7.4025 -3.8675 6.7425 -3.1875 6.0625 C-3.1875 5.0725 -3.1875 4.0825 -3.1875 3.0625 C-4.5075 3.0625 -5.8275 3.0625 -7.1875 3.0625 C-7.1875 2.4025 -7.1875 1.7425 -7.1875 1.0625 C-4.43671116 0.14557039 -2.82801087 -0.04636083 0 0 Z " fill="#3C9A37" transform="translate(146.1875,119.9375)"/>
<path d="M0 0 C1.98 0 3.96 0 6 0 C6.33 0.66 6.66 1.32 7 2 C6.34 2 5.68 2 5 2 C5 2.66 5 3.32 5 4 C6.98 4 8.96 4 11 4 C11.06058594 4.62648438 11.12117187 5.25296875 11.18359375 5.8984375 C11.26738281 6.71570312 11.35117188 7.53296875 11.4375 8.375 C11.55931641 9.59316406 11.55931641 9.59316406 11.68359375 10.8359375 C11.89090114 13.04272805 11.89090114 13.04272805 13 15 C15.52369457 15.79941308 17.99718906 16.4936108 20.5625 17.125 C21.27341797 17.30675781 21.98433594 17.48851563 22.71679688 17.67578125 C24.47602969 18.12444465 26.23779417 18.56315957 28 19 C28 19.66 28 20.32 28 21 C22.39 20.01 16.78 19.02 11 18 C10.67 17.01 10.34 16.02 10 15 C8.906875 15.020625 7.81375 15.04125 6.6875 15.0625 C3 15 3 15 0 14 C0 9.38 0 4.76 0 0 Z " fill="#2D5352" transform="translate(0,31)"/>
<path d="M0 0 C1.32 0 2.64 0 4 0 C4 0.66 4 1.32 4 2 C4.639375 2.226875 5.27875 2.45375 5.9375 2.6875 C8 4 8 4 9.0625 6.3125 C9 9 9 9 6.90625 11.3203125 C3.82177039 14.16433536 0.66553533 16.88423363 -2.5625 19.5625 C-7.0592395 23.29770587 -7.0592395 23.29770587 -11.27734375 27.33984375 C-13 29 -13 29 -15 29 C-15.33 29.99 -15.66 30.98 -16 32 C-21.5 32.36666667 -21.5 32.36666667 -23.875 30.625 C-25 29 -25 29 -25 27 C-25.639375 26.896875 -26.27875 26.79375 -26.9375 26.6875 C-27.618125 26.460625 -28.29875 26.23375 -29 26 C-29.33 25.01 -29.66 24.02 -30 23 C-28.68 22.67 -27.36 22.34 -26 22 C-26 22.99 -26 23.98 -26 25 C-25.34 25 -24.68 25 -24 25 C-24 22.36 -24 19.72 -24 17 C-22.68 17.66 -21.36 18.32 -20 19 C-20.33 19.99 -20.66 20.98 -21 22 C-20.72230092 24.3406065 -20.39460023 26.67624308 -20 29 C-19.236875 28.525625 -18.47375 28.05125 -17.6875 27.5625 C-15 26 -15 26 -12 25 C-12 24.34 -12 23.68 -12 23 C-9.17201181 20.65216489 -6.27159584 18.45058226 -3.328125 16.25195312 C0.33177225 13.46509387 3.28004809 10.77084242 6 7 C5.01 7.33 4.02 7.66 3 8 C2.505 7.01 2.505 7.01 2 6 C2.66 5.67 3.32 5.34 4 5 C3.73323796 3.01508358 3.73323796 3.01508358 3 1 C2.01 0.67 1.02 0.34 0 0 Z " fill="#315555" transform="translate(197,188)"/>
<path d="M0 0 C1.32 0.66 2.64 1.32 4 2 C4 2.66 4 3.32 4 4 C4.598125 4.28875 5.19625 4.5775 5.8125 4.875 C8 6 8 6 11 8 C11 8.66 11 9.32 11 10 C13.475 10.99 13.475 10.99 16 12 C16 12.66 16 13.32 16 14 C16.66 14 17.32 14 18 14 C18 14.66 18 15.32 18 16 C19.65 16.66 21.3 17.32 23 18 C23 20.31 23 22.62 23 25 C19.34426939 23.62992438 16.04532353 21.98982135 12.6875 20 C11.80449219 19.484375 10.92148438 18.96875 10.01171875 18.4375 C9.34785156 17.963125 8.68398437 17.48875 8 17 C8 16.34 8 15.68 8 15 C4.46588679 12.87953208 1.05606165 12.46800711 -3 12 C-2.14285714 3.42857143 -2.14285714 3.42857143 0 0 Z M1 6 C1 6.66 1 7.32 1 8 C2.94614527 9.59348861 2.94614527 9.59348861 5.375 11.125 C6.59316406 11.93324219 6.59316406 11.93324219 7.8359375 12.7578125 C9.87322026 14.1659413 9.87322026 14.1659413 12 14 C12.226875 14.598125 12.45375 15.19625 12.6875 15.8125 C14.35609042 18.59348403 16.1283832 19.5641916 19 21 C19.66 21 20.32 21 21 21 C21.21229382 18.94622821 21.21229382 18.94622821 19.8125 17.5625 C17.68628064 15.72955228 15.41143256 14.43537653 13 13 C12.13375 12.278125 11.2675 11.55625 10.375 10.8125 C8.10045848 8.69666334 8.10045848 8.69666334 5 9 C4.67 8.01 4.34 7.02 4 6 C3.01 6 2.02 6 1 6 Z " fill="#234445" transform="translate(227,142)"/>
<path d="M0 0 C5.73068634 1.05797286 9.5666189 5.0579998 12.9375 9.625 C14 12 14 12 14 16 C7.07 16 0.14 16 -7 16 C-6.67 15.01 -6.34 14.02 -6 13 C-5.38125 12.896875 -4.7625 12.79375 -4.125 12.6875 C-1.62535475 12.14223648 -1.62535475 12.14223648 -0.25 8.9375 C0.1625 7.968125 0.575 6.99875 1 6 C1.99 6 2.98 6 4 6 C4 5.01 4 4.02 4 3 C2.35 3 0.7 3 -1 3 C-0.67 2.01 -0.34 1.02 0 0 Z " fill="#254747" transform="translate(212,213)"/>
<path d="M0 0 C2.375 0.3125 2.375 0.3125 5 1 C5.66 1.99 6.32 2.98 7 4 C9.05003955 5.19232613 9.05003955 5.19232613 11 6 C11 6.66 11 7.32 11 8 C11.66 8 12.32 8 13 8 C13 8.66 13 9.32 13 10 C13.9590625 10.1546875 13.9590625 10.1546875 14.9375 10.3125 C15.618125 10.539375 16.29875 10.76625 17 11 C17.33 11.99 17.66 12.98 18 14 C18.66 14 19.32 14 20 14 C20 16.31 20 18.62 20 21 C14.09307648 18.27372761 10.03958211 15.04947764 6 10 C4.9275 9.360625 3.855 8.72125 2.75 8.0625 C1.8425 7.381875 0.935 6.70125 0 6 C-0.375 2.75 -0.375 2.75 0 0 Z " fill="#244446" transform="translate(230,136)"/>
<path d="M0 0 C12.12374821 1.3698261 20.2152778 4.78886359 30 12 C31.35406593 12.91681547 32.70820828 13.8335181 34.0625 14.75 C38.72887292 18.32424309 42.41828706 22.35703879 46 27 C43 28 43 28 41 28 C40.46375 26.906875 39.9275 25.81375 39.375 24.6875 C37.27470525 20.95532156 35.030914 19.55739859 31 18 C31 17.34 31 16.68 31 16 C30.34 16 29.68 16 29 16 C28 15 27 14 26 13 C23.96767758 11.80400932 23.96767758 11.80400932 21.8125 10.8125 C21.09707031 10.46832031 20.38164062 10.12414063 19.64453125 9.76953125 C18.83048828 9.38861328 18.83048828 9.38861328 18 9 C18 8.34 18 7.68 18 7 C16.12577848 6.51779737 14.25058246 6.03938167 12.375 5.5625 C11.33085937 5.29566406 10.28671875 5.02882813 9.2109375 4.75390625 C6.15108876 4.03547461 3.1051949 3.48023284 0 3 C0 2.01 0 1.02 0 0 Z " fill="#71C75A" transform="translate(147,28)"/>
<path d="M0 0 C-0.66 0 -1.32 0 -2 0 C-2 0.99 -2 1.98 -2 3 C-1.34 3 -0.68 3 0 3 C0.99 4.98 1.98 6.96 3 9 C-2.94 9 -8.88 9 -15 9 C-15 8.34 -15 7.68 -15 7 C-15.99 6.67 -16.98 6.34 -18 6 C-18 5.34 -18 4.68 -18 4 C-17.34 4 -16.68 4 -16 4 C-16 3.34 -16 2.68 -16 2 C-13.89829344 1.46932659 -11.79352402 0.95077143 -9.6875 0.4375 C-8.51574219 0.14746094 -7.34398437 -0.14257812 -6.13671875 -0.44140625 C-3 -1 -3 -1 0 0 Z " fill="#244344" transform="translate(28,220)"/>
<path d="M0 0 C5.94 0.66 11.88 1.32 18 2 C18 2.33 18 2.66 18 3 C16.02 3.33 14.04 3.66 12 4 C12.33 4.99 12.66 5.98 13 7 C13.03954234 9.33299825 13.04401732 11.66708189 13 14 C8.71 14 4.42 14 0 14 C0 10.37 0 6.74 0 3 C0.66 3 1.32 3 2 3 C2.66 4.98 3.32 6.96 4 9 C4.08226668 5.95613276 3.97608217 3.92824652 3 1 C2.01 0.67 1.02 0.34 0 0 Z " fill="#355656" transform="translate(97,215)"/>
<path d="M0 0 C2 2 2 2 2 4 C4.475 4.99 4.475 4.99 7 6 C7 6.66 7 7.32 7 8 C7.94359375 7.69964844 8.8871875 7.39929688 9.859375 7.08984375 C18.03321013 4.62005184 25.45516432 2.93293583 34 5 C34.66 5.66 35.32 6.32 36 7 C35.67 7.33 35.34 7.66 35 8 C33.39169477 7.85214455 31.78787457 7.65500441 30.1875 7.4375 C22.39508007 6.65825801 14.95761974 7.67765416 7.6875 10.625 C3.65867442 12.12727394 1.216746 12.26354663 -3 12 C-2.69230293 10.18667846 -2.37870936 8.37435655 -2.0625 6.5625 C-1.80146484 5.04849609 -1.80146484 5.04849609 -1.53515625 3.50390625 C-1 1 -1 1 0 0 Z " fill="#65D448" transform="translate(46,180)"/>
<path d="M0 0 C1.62418745 -0.08090971 3.24951745 -0.13914995 4.875 -0.1875 C5.77992187 -0.22230469 6.68484375 -0.25710937 7.6171875 -0.29296875 C8.79667969 -0.14794922 8.79667969 -0.14794922 10 0 C10.66 0.99 11.32 1.98 12 3 C15.17638109 5.11758739 15.68476711 5.19945359 19.25 5 C23.62650314 4.90718672 26.90971018 5.41396925 31 7 C31.99 8.485 31.99 8.485 33 10 C35.88595946 10.58481121 35.88595946 10.58481121 39.125 10.6875 C40.22070312 10.75324219 41.31640625 10.81898438 42.4453125 10.88671875 C43.28835937 10.92410156 44.13140625 10.96148437 45 11 C45 11.33 45 11.66 45 12 C30.78788022 12.42636359 18.95055217 11.44257267 6 5 C6 4.34 6 3.68 6 3 C5.195625 2.87625 4.39125 2.7525 3.5625 2.625 C2.716875 2.41875 1.87125 2.2125 1 2 C0.67 1.34 0.34 0.68 0 0 Z " fill="#79CF62" transform="translate(74,187)"/>
<path d="M0 0 C1.32 0 2.64 0 4 0 C2.51868744 4.98091348 -0.37735745 7.84185012 -4 11.375 C-4.87241333 12.23327393 -4.87241333 12.23327393 -5.76245117 13.10888672 C-12.63293457 19.74291169 -19.68461003 25.38515369 -29 28 C-29.99 27.67 -30.98 27.34 -32 27 C-31.34 27 -30.68 27 -30 27 C-30 26.01 -30 25.02 -30 24 C-26.535 23.505 -26.535 23.505 -23 23 C-22.67 21.68 -22.34 20.36 -22 19 C-20.35 18.67 -18.7 18.34 -17 18 C-16.67 17.01 -16.34 16.02 -16 15 C-14.329375 14.319375 -14.329375 14.319375 -12.625 13.625 C-8.56234201 11.80380849 -8.06136287 10.74793248 -6 7 C-1.75862069 4 -1.75862069 4 1 4 C0.505 2.02 0.505 2.02 0 0 Z " fill="#69C753" transform="translate(193,162)"/>
<path d="M0 0 C1.07765625 0.00902344 2.1553125 0.01804688 3.265625 0.02734375 C4.08546875 0.03894531 4.9053125 0.05054688 5.75 0.0625 C5.75 1.7125 5.75 3.3625 5.75 5.0625 C12.68 5.0625 19.61 5.0625 26.75 5.0625 C26.75 5.3925 26.75 5.7225 26.75 6.0625 C22.08712319 6.22998075 17.42407963 6.39055376 12.76074219 6.54467773 C11.17376271 6.59810756 9.58684605 6.65343771 8 6.71069336 C5.72149196 6.79257724 3.44284678 6.86766524 1.1640625 6.94140625 C0.09679428 6.98195885 0.09679428 6.98195885 -0.99203491 7.02333069 C-6.02225659 7.17637171 -6.02225659 7.17637171 -8.25 6.0625 C-8.25 5.4025 -8.25 4.7425 -8.25 4.0625 C-8.91 4.0625 -9.57 4.0625 -10.25 4.0625 C-10.25 3.0725 -10.25 2.0825 -10.25 1.0625 C-6.78777385 -0.00473961 -3.60960734 -0.03923486 0 0 Z " fill="#375354" transform="translate(106.25,-0.0625)"/>
<path d="M0 0 C0.66 0 1.32 0 2 0 C2 0.66 2 1.32 2 2 C2.99 2 3.98 2 5 2 C5 2.66 5 3.32 5 4 C4.01 4 3.02 4 2 4 C2 9.28 2 14.56 2 20 C2.99 20 3.98 20 5 20 C5 20.66 5 21.32 5 22 C5.66 22.33 6.32 22.66 7 23 C6.67 23.99 6.34 24.98 6 26 C4.8134874 30.08594833 4.85134821 33.76342394 5 38 C5.66 38 6.32 38 7 38 C7 39.65 7 41.3 7 43 C-0.69845042 34.56836383 -0.14842268 21.71030248 -0.0625 11.0625 C-0.05798828 9.99708984 -0.05347656 8.93167969 -0.04882812 7.83398438 C-0.03711787 5.22259709 -0.02071724 2.61132876 0 0 Z " fill="#339829" transform="translate(31,100)"/>
<path d="M0 0 C1.46573934 0.90477737 2.92235756 1.82434141 4.375 2.75 C5.18710938 3.26046875 5.99921875 3.7709375 6.8359375 4.296875 C9.11533194 6.09076665 9.81167713 7.41716124 11 10 C12.6476038 10.71247732 14.31763529 11.37400383 16 12 C18.8125 13.9375 18.8125 13.9375 21 16 C21 16.99 21 17.98 21 19 C19.35 18.34 17.7 17.68 16 17 C16 16.34 16 15.68 16 15 C15.34 15 14.68 15 14 15 C14 14.34 14 13.68 14 13 C11.525 12.01 11.525 12.01 9 11 C9 10.34 9 9.68 9 9 C8.1028125 8.566875 8.1028125 8.566875 7.1875 8.125 C5 7 5 7 2 5 C2 4.34 2 3.68 2 3 C1.34 3 0.68 3 0 3 C0 2.01 0 1.02 0 0 Z M-1 7 C0.32 7.33 1.64 7.66 3 8 C3 8.66 3 9.32 3 10 C3.804375 10.0928125 3.804375 10.0928125 4.625 10.1875 C8.04369966 11.35705515 10.26923885 13.67594796 13 16 C13.99 16.33 14.98 16.66 16 17 C17.6875 18.4375 17.6875 18.4375 19 20 C19 20.66 19 21.32 19 22 C15.56072421 20.7580393 12.74792181 19.44259716 10 17 C10 16.34 10 15.68 10 15 C9.484375 14.7525 8.96875 14.505 8.4375 14.25 C5.22815849 12.60418384 2.12414336 10.8023904 -1 9 C-1 8.34 -1 7.68 -1 7 Z " fill="#2E5152" transform="translate(229,141)"/>
<path d="M0 0 C2.31 0.33 4.62 0.66 7 1 C7 1.66 7 2.32 7 3 C7.51175781 3.08507812 8.02351563 3.17015625 8.55078125 3.2578125 C12.0271651 4.31126215 15.05064227 6.08342721 18.1875 7.875 C19.14946289 8.40287109 19.14946289 8.40287109 20.13085938 8.94140625 C24.87976959 11.63930878 24.87976959 11.63930878 26 15 C25.67 15.66 25.34 16.32 25 17 C24.34 17 23.68 17 23 17 C23 17.66 23 18.32 23 19 C22.34 19 21.68 19 21 19 C21 20.65 21 22.3 21 24 C20.34 24 19.68 24 19 24 C19.33 25.32 19.66 26.64 20 28 C19.34 28 18.68 28 18 28 C17.04979972 25.00321449 16.53536395 22.93113064 17.9765625 20.04296875 C19.23705072 18.23332045 20.43745414 16.55793658 22 15 C22.66 15 23.32 15 24 15 C24 14.34 24 13.68 24 13 C23.29617187 12.9071875 22.59234375 12.814375 21.8671875 12.71875 C18.45697179 11.86387304 16.09036394 10.37934754 13.125 8.5 C6.95716327 4.7839048 6.95716327 4.7839048 0 4 C-2.4212319 5.2910871 -2.4212319 5.2910871 -4 7 C-2.79618552 4.50638429 -1.54571278 2.31856917 0 0 Z " fill="#305051" transform="translate(27,8)"/>
<path d="M0 0 C2.4375 2.125 2.4375 2.125 5 5 C5.54398438 5.56460938 6.08796875 6.12921875 6.6484375 6.7109375 C10.90964745 11.29223834 10.90964745 11.29223834 11.375 14.9375 C11.189375 15.9584375 11.189375 15.9584375 11 17 C10.34 17 9.68 17 9 17 C8.82984375 16.37351563 8.6596875 15.74703125 8.484375 15.1015625 C8.24203125 14.28429687 7.9996875 13.46703125 7.75 12.625 C7.51796875 11.81289062 7.2859375 11.00078125 7.046875 10.1640625 C5.75761005 7.49894017 4.670092 7.12288753 2 6 C1.34 5.278125 0.68 4.55625 0 3.8125 C-0.66 3.214375 -1.32 2.61625 -2 2 C-5.17140304 2.36441338 -6.926952 3.51638003 -9.234375 5.65234375 C-9.80800781 6.18150391 -10.38164062 6.71066406 -10.97265625 7.25585938 C-11.85244141 8.08827148 -11.85244141 8.08827148 -12.75 8.9375 C-13.35199219 9.48857422 -13.95398438 10.03964844 -14.57421875 10.60742188 C-16.09390507 12.02545117 -17.55239231 13.50846202 -19 15 C-19 15.66 -19 16.32 -19 17 C-19.99 17 -20.98 17 -22 17 C-20.68659995 11.16746689 -17.99067112 8.73814994 -13.5 5.1875 C-12.90574219 4.69830078 -12.31148437 4.20910156 -11.69921875 3.70507812 C-5.11716702 -1.66605438 -5.11716702 -1.66605438 0 0 Z " fill="#315353" transform="translate(217,212)"/>
<path d="M0 0 C9.00563236 1.35165911 18.39745665 7.47751317 24.8125 13.75 C27.58300935 17.86618531 28 20.06682157 28 25 C27.0625 26.875 27.0625 26.875 25 28 C22.34326046 28.82107895 19.7272002 29.4187934 17 30 C16.67 28.68 16.34 27.36 16 26 C19.02734375 25.75585938 19.02734375 25.75585938 22.0546875 25.51171875 C24.39519216 25.12606964 24.39519216 25.12606964 26 22 C24.68 21.67 23.36 21.34 22 21 C22.99 20.67 23.98 20.34 25 20 C20.95791553 11.4105705 11.70475209 7.61642931 3.66015625 3.515625 C1 2 1 2 0 0 Z " fill="#2F5252" transform="translate(216,170)"/>
<path d="M0 0 C-0.30782496 1.64671412 -0.62139234 3.29235576 -0.9375 4.9375 C-1.11152344 5.85402344 -1.28554687 6.77054687 -1.46484375 7.71484375 C-2 10 -2 10 -3 11 C-4.66617115 11.04063832 -6.33388095 11.042721 -8 11 C-8.33 9.35 -8.66 7.7 -9 6 C-9.99 6 -10.98 6 -12 6 C-12.33 4.35 -12.66 2.7 -13 1 C-8.60563789 0.14256349 -4.47427924 -0.08948558 0 0 Z " fill="#315454" transform="translate(13,66)"/>
<path d="M0 0 C0.33 0.66 0.66 1.32 1 2 C0.34 2 -0.32 2 -1 2 C-0.34 4.31 0.32 6.62 1 9 C1.66 9 2.32 9 3 9 C3 8.01 3 7.02 3 6 C3.66 5.67 4.32 5.34 5 5 C4.34 3.68 3.68 2.36 3 1 C6.73386136 2.24462045 7.64805848 3.91307675 10 7 C10.5775 7.5775 11.155 8.155 11.75 8.75 C13 10 13 10 13 11 C10.89695523 11.1080023 8.79233091 11.18558987 6.6875 11.25 C4.92986328 11.31960937 4.92986328 11.31960937 3.13671875 11.390625 C0 11 0 11 -1.91796875 9.109375 C-3 7 -3 7 -3 5 C-3.66 5 -4.32 5 -5 5 C-5.33 4.01 -5.66 3.02 -6 2 C-8.31 2.33 -10.62 2.66 -13 3 C-8.48332093 -0.01111938 -5.3360009 -0.10067926 0 0 Z " fill="#335455" transform="translate(31,218)"/>
<path d="M0 0 C-3.20410613 1.7630249 -6.34907926 2.68416828 -9.875 3.625 C-21.83275784 7.23919872 -33.4407395 14.17449645 -42.1171875 23.203125 C-44 25 -44 25 -46 25 C-46.33 25.66 -46.66 26.32 -47 27 C-47 26.01 -47 25.02 -47 24 C-46.34 24 -45.68 24 -45 24 C-45 23.34 -45 22.68 -45 22 C-44.34 22 -43.68 22 -43 22 C-42.896875 21.38125 -42.79375 20.7625 -42.6875 20.125 C-42 18 -42 18 -39 16 C-38.01 16 -37.02 16 -36 16 C-36 15.34 -36 14.68 -36 14 C-35.34 13.34 -34.68 12.68 -34 12 C-32.68 12 -31.36 12 -30 12 C-29.67 11.01 -29.34 10.02 -29 9 C-26.39757586 7.35179805 -25.13751221 7 -22 7 C-22 6.34 -22 5.68 -22 5 C-19.9170757 4.35284867 -17.83364461 3.70732834 -15.75 3.0625 C-14.58984375 2.70285156 -13.4296875 2.34320312 -12.234375 1.97265625 C-7.93349609 0.679276 -4.50496151 -0.12513782 0 0 Z " fill="#E4FBDE" transform="translate(102,24)"/>
<path d="M0 0 C1.37639625 1.63128444 2.69694744 3.30955344 4 5 C4.47824219 5.59296875 4.95648438 6.1859375 5.44921875 6.796875 C7.36373064 9.41949402 8.94297125 11.64217265 9.08203125 14.953125 C8.60619743 17.42180741 7.86715285 19.63625516 7 22 C6.77779785 22.61004883 6.5555957 23.22009766 6.32666016 23.84863281 C5.06637307 27.29148922 3.7693539 30.71706833 2.4375 34.1328125 C1.06651915 37.70638232 -0.00207297 41.3057509 -1 45 C-2.37344385 40.60155678 -1.24307502 37.07495445 -0.0625 32.75 C0.13279297 32.00492188 0.32808594 31.25984375 0.52929688 30.4921875 C1.01104198 28.65920614 1.50439225 26.82928182 2 25 C2.66 25 3.32 25 4 25 C4.2236337 23.58566794 4.42826476 22.16832382 4.625 20.75 C4.74101563 19.96109375 4.85703125 19.1721875 4.9765625 18.359375 C5.00351634 15.64602221 4.37095578 14.30793995 3 12 C1.64560332 9.29120665 1.93498549 6.99066732 2 4 C1.34 4 0.68 4 0 4 C0 2.68 0 1.36 0 0 Z " fill="#D2F2CD" transform="translate(39,150)"/>
<path d="M0 0 C2.31 0 4.62 0 7 0 C7.33 1.32 7.66 2.64 8 4 C9.65 4 11.3 4 13 4 C13.33 4.66 13.66 5.32 14 6 C13.01 6.99 12.02 7.98 11 9 C10.154375 8.690625 9.30875 8.38125 8.4375 8.0625 C5.04307988 6.90515898 5.04307988 6.90515898 1.5625 6.5625 C-2.44069074 5.93041725 -5.34839061 4.71402073 -9 3 C-8.34 2.34 -7.68 1.68 -7 1 C-3.375 1.375 -3.375 1.375 0 2 C0 1.34 0 0.68 0 0 Z " fill="#355555" transform="translate(173,11)"/>
<path d="M0 0 C0 0.66 0 1.32 0 2 C0.99 2 1.98 2 3 2 C3 3.32 3 4.64 3 6 C7.95 6.33 12.9 6.66 18 7 C18 8.32 18 9.64 18 11 C16.68 11 15.36 11 14 11 C14 11.66 14 12.32 14 13 C9.79694865 11.86404018 6.04235886 10.1126616 2.1875 8.125 C0.75470703 7.38636719 0.75470703 7.38636719 -0.70703125 6.6328125 C-3 5 -3 5 -3.82421875 2.8046875 C-3.88222656 2.20914063 -3.94023437 1.61359375 -4 1 C-2 0 -2 0 0 0 Z " fill="#369A2D" transform="translate(160,121)"/>
<path d="M0 0 C0.8531488 2.38881665 1.12563748 3.62308755 0.3125 6.0625 C-1.18464888 8.27257692 -2.79042813 9.52695209 -5 11 C-4.67 12.65 -4.34 14.3 -4 16 C-3.01 16.33 -2.02 16.66 -1 17 C-0.67 17.99 -0.34 18.98 0 20 C3.00847418 21.22520264 3.00847418 21.22520264 6 22 C5.34 23.32 4.68 24.64 4 26 C4.66 26.33 5.32 26.66 6 27 C6 27.99 6 28.98 6 30 C2.06255013 28.45024856 -0.02087481 25.97639609 -2.6875 22.75 C-3.47511719 21.81671875 -4.26273437 20.8834375 -5.07421875 19.921875 C-7.18274023 16.72273896 -7.97456136 14.82597151 -8 11 C-6.6015625 8.515625 -6.6015625 8.515625 -4.625 6.25 C-2.03715126 3.30695414 -2.03715126 3.30695414 0 0 Z " fill="#219613" transform="translate(105,91)"/>
<path d="M0 0 C7.5904217 6.67037059 12.31189647 15.35445205 15 25 C13.68 25 12.36 25 11 25 C10.9175 24.0925 10.835 23.185 10.75 22.25 C9.87352012 18.45192053 8.72948904 17.66520759 6 15 C4.86043639 13.39258803 3.77629879 11.74448968 2.75 10.0625 C2.22921875 9.22847656 1.7084375 8.39445312 1.171875 7.53515625 C-0.09925343 4.78528175 -0.23544115 2.99117275 0 0 Z " fill="#54B243" transform="translate(193,56)"/>
<path d="M0 0 C1.36125 0.7115625 1.36125 0.7115625 2.75 1.4375 C0.03044639 2.4165393 -1.52874643 2.39377507 -4.4375 1.9375 C-8.89966804 1.35229763 -12.82555341 1.78537068 -17.25 2.4375 C-17.25 3.0975 -17.25 3.7575 -17.25 4.4375 C-19.23 4.4375 -21.21 4.4375 -23.25 4.4375 C-23.58 5.4275 -23.91 6.4175 -24.25 7.4375 C-28.92201205 8.64318053 -33.46496292 8.53132426 -38.25 8.4375 C-35.4820225 6.59218167 -33.48536948 5.75529394 -30.35546875 4.78125 C-29.39962891 4.48089844 -28.44378906 4.18054688 -27.45898438 3.87109375 C-26.46189453 3.56300781 -25.46480469 3.25492188 -24.4375 2.9375 C-22.47256261 2.32321611 -20.50771631 1.70864077 -18.54296875 1.09375 C-17.16117432 0.66485474 -17.16117432 0.66485474 -15.75146484 0.22729492 C-13.71624333 -0.41529161 -11.69379949 -1.09824116 -9.67578125 -1.79296875 C-5.65005407 -3.07005129 -3.73661196 -1.79644806 0 0 Z " fill="#DDF8D5" transform="translate(77.25,188.5625)"/>
<path d="M0 0 C3.22834897 2.49044063 4.98752204 5.50003834 7 9 C7.98244845 10.34631825 8.97676564 11.68441297 10 13 C8.68 12.67 7.36 12.34 6 12 C6 11.34 6 10.68 6 10 C5.443125 9.773125 4.88625 9.54625 4.3125 9.3125 C1.36753316 7.64103234 -0.68156544 5.44723648 -3 3 C-2.01 4.65 -1.02 6.3 0 8 C-0.99 8 -1.98 8 -3 8 C-3 8.99 -3 9.98 -3 11 C-3.66 11 -4.32 11 -5 11 C-7 8 -7 8 -6.5 5.4375 C-6.335 4.633125 -6.17 3.82875 -6 3 C-6.66 2.34 -7.32 1.68 -8 1 C-5.15916359 -0.42041821 -3.14522722 -0.31452272 0 0 Z " fill="#214645" transform="translate(37,216)"/>
<path d="M0 0 C1.0209375 0.38091797 1.0209375 0.38091797 2.0625 0.76953125 C20.16095397 7.19544509 36.95380432 7.39144268 56 7 C56 7.66 56 8.32 56 9 C51.10702988 9.04955872 46.21420695 9.0857946 41.32104492 9.10986328 C39.65760756 9.11990057 37.99418775 9.13353331 36.33081055 9.15087891 C33.93533995 9.17522749 31.54010332 9.18650588 29.14453125 9.1953125 C28.03486748 9.21079636 28.03486748 9.21079636 26.90278625 9.22659302 C22.79056541 9.22748 19.71131341 8.76990703 16 7 C14.36284074 6.62638521 12.71606552 6.29257399 11.0625 6 C7.2439593 5.28081296 3.65535206 4.34670865 0 3 C0 2.01 0 1.02 0 0 Z " fill="#DDFAD5" transform="translate(84,193)"/>
<path d="M0 0 C0 0.66 0 1.32 0 2 C-1.65 2.33 -3.3 2.66 -5 3 C-4.79375 3.886875 -4.5875 4.77375 -4.375 5.6875 C-3.97449761 9.2252711 -4.43316484 10.86632967 -6 14 C-5.360625 14.515625 -4.72125 15.03125 -4.0625 15.5625 C-1.44208319 18.65935623 -1.30610183 21.02067623 -1 25 C0.093125 24.95875 1.18625 24.9175 2.3125 24.875 C6 25 6 25 9 27 C5.37 27 1.74 27 -2 27 C-2.35807292 24.72135417 -2.71614583 22.44270833 -3.07421875 20.1640625 C-3.37972656 19.44992188 -3.68523437 18.73578125 -4 18 C-6.475 17.01 -6.475 17.01 -9 16 C-8.67 11.38 -8.34 6.76 -8 2 C-2 0 -2 0 0 0 Z " fill="#2E4F50" transform="translate(212,6)"/>
<path d="M0 0 C0.91668777 3.10038985 1.09376744 5.80899018 1.02734375 9.03515625 C1.01509766 10.01033203 1.00285156 10.98550781 0.99023438 11.99023438 C0.9555461 14.01114753 0.91660303 16.0319929 0.87304688 18.05273438 C0.73173358 30.74599308 3.92276306 42.08192278 8 54 C4.13503931 52.06751965 2.66022657 47.81999033 1 44 C-1.27952182 34.53565622 -1.27746519 24.92836012 -1.1875 15.25 C-1.18603861 13.87239645 -1.18538373 12.49479181 -1.18554688 11.1171875 C-1.14074248 1.14074248 -1.14074248 1.14074248 0 0 Z " fill="#CEF0C9" transform="translate(31,96)"/>
<path d="M0 0 C1.29550781 -0.02126953 1.29550781 -0.02126953 2.6171875 -0.04296875 C5.2491288 0.19890748 6.86480544 0.85766459 9.125 2.1875 C5.85586376 3.21865279 3.26458652 3.1513984 -0.125 2.75 C-1.01703125 2.64816406 -1.9090625 2.54632812 -2.828125 2.44140625 C-3.50359375 2.35761719 -4.1790625 2.27382813 -4.875 2.1875 C-3.35552501 5.55498512 -2.35399158 6.79590337 1.125 8.1875 C1.125 8.8475 1.125 9.5075 1.125 10.1875 C2.775 10.5175 4.425 10.8475 6.125 11.1875 C5.795 11.8475 5.465 12.5075 5.125 13.1875 C-0.815 12.1975 -0.815 12.1975 -6.875 11.1875 C-7.205 12.1775 -7.535 13.1675 -7.875 14.1875 C-8.535 12.8675 -9.195 11.5475 -9.875 10.1875 C-5.125 9.0625 -5.125 9.0625 -2.875 10.1875 C-2.875 9.5275 -2.875 8.8675 -2.875 8.1875 C-3.865 7.8575 -4.855 7.5275 -5.875 7.1875 C-6.205 5.2075 -6.535 3.2275 -6.875 1.1875 C-4.42528376 -0.03735812 -2.73265539 0.02027192 0 0 Z " fill="#2F5251" transform="translate(26.875,21.8125)"/>
<path d="M0 0 C7.92 3.96 7.92 3.96 16 8 C16.29093001 14.30348352 16.0618888 18.44323884 13 24 C12.01 24.66 11.02 25.32 10 26 C10 23.36 10 20.72 10 18 C10.66 18 11.32 18 12 18 C12.66 15.03 13.32 12.06 14 9 C12.948125 8.731875 11.89625 8.46375 10.8125 8.1875 C7.40927088 7.12747781 4.86841082 6.08611696 2 4 C2 3.34 2 2.68 2 2 C1.34 2 0.68 2 0 2 C0 1.34 0 0.68 0 0 Z " fill="#E1FBDD" transform="translate(161,128)"/>
<path d="M0 0 C0.33 1.32 0.66 2.64 1 4 C1.70125 3.7525 2.4025 3.505 3.125 3.25 C7.18352105 2.89708513 8.91651657 4.49018791 12 7 C12 7.66 12 8.32 12 9 C12.71542969 9.26941406 13.43085938 9.53882813 14.16796875 9.81640625 C17.02787013 11.01164779 19.63481465 12.37849208 22.3125 13.9375 C23.19550781 14.44152344 24.07851562 14.94554687 24.98828125 15.46484375 C25.98408203 16.22474609 25.98408203 16.22474609 27 17 C27 17.99 27 18.98 27 20 C25.35 19.34 23.7 18.68 22 18 C22 17.34 22 16.68 22 16 C21.21625 15.71125 20.4325 15.4225 19.625 15.125 C17 14 17 14 15 12 C14.38125 11.87625 13.7625 11.7525 13.125 11.625 C11 11 11 11 9.0625 8.875 C8.381875 8.25625 7.70125 7.6375 7 7 C4.25573284 7.19601908 2.44789508 7.77605246 0 9 C-1.125 7.3125 -1.125 7.3125 -2 5 C-1.125 2.25 -1.125 2.25 0 0 Z " fill="#2F5252" transform="translate(223,150)"/>
<path d="M0 0 C1.30339523 3.91018568 0.34282308 5.10550887 -1.3125 8.8125 C-3.08995145 12.83086445 -4.66644469 16.81150936 -6 21 C-6.66 21 -7.32 21 -8 21 C-8.28875 21.78375 -8.5775 22.5675 -8.875 23.375 C-10 26 -10 26 -12 28 C-13.9451 25.08235 -14.45276317 23.37462715 -15 20 C-14.34 20 -13.68 20 -13 20 C-12.34 20.66 -11.68 21.32 -11 22 C-10.896875 21.38125 -10.79375 20.7625 -10.6875 20.125 C-10 18 -10 18 -7 16 C-6.26393501 12.43230448 -6.26393501 12.43230448 -6 9 C-5.01 8.67 -4.02 8.34 -3 8 C-1.82917122 5.07085835 -1.82917122 5.07085835 -1 2 C-0.67 1.34 -0.34 0.68 0 0 Z " fill="#47A539" transform="translate(210,133)"/>
<path d="M0 0 C0.66 0.99 1.32 1.98 2 3 C0.625 5 0.625 5 -1 7 C-1.66 7 -2.32 7 -3 7 C-3.20625 7.5775 -3.4125 8.155 -3.625 8.75 C-5 11 -5 11 -7.9375 12.8125 C-11.82211105 15.58722218 -12.46695572 17.57120541 -14 22 C-14.66 22 -15.32 22 -16 22 C-16 22.99 -16 23.98 -16 25 C-16.66 25 -17.32 25 -18 25 C-15.22126959 16.91642062 -9.74775651 9.25448568 -4 3 C-3.34 3 -2.68 3 -2 3 C-2 2.34 -2 1.68 -2 1 C-1.34 0.67 -0.68 0.34 0 0 Z " fill="#67C356" transform="translate(58,48)"/>
<path d="M0 0 C3.94465818 0.60645022 7.33992527 1.38526115 11 3 C11 3.33 11 3.66 11 4 C9.96939453 3.91298828 9.96939453 3.91298828 8.91796875 3.82421875 C6.20239132 3.68824563 3.69591297 3.62980193 1 4 C-1.08216876 6.3549963 -1.08216876 6.3549963 -2 9 C-2.66 9 -3.32 9 -4 9 C-4 9.66 -4 10.32 -4 11 C-7.58757062 14.58757062 -7.58757062 14.58757062 -10 16 C-12.875 15.8125 -12.875 15.8125 -15 15 C-15 14.34 -15 13.68 -15 13 C-14.11054688 12.78601563 -13.22109375 12.57203125 -12.3046875 12.3515625 C-8.28593334 10.70795855 -6.75019641 8.79571047 -4.125 5.375 C-3.34382812 4.37210938 -2.56265625 3.36921875 -1.7578125 2.3359375 C-1.17773438 1.56507812 -0.59765625 0.79421875 0 0 Z " fill="#CDF2CC" transform="translate(149,124)"/>
<path d="M0 0 C1.19882813 -0.020625 2.39765625 -0.04125 3.6328125 -0.0625 C10.73300428 -0.09364119 16.28953451 0.55916464 22.875 3.25 C19.25336185 4.50364398 16.59921709 3.90959708 12.875 3.25 C10.42032644 3.1709869 7.96373644 3.1421953 5.5078125 3.15234375 C4.82822479 3.1537587 4.14863708 3.15517365 3.44845581 3.15663147 C1.29892388 3.16218482 -0.85050008 3.17472831 -3 3.1875 C-4.46614432 3.19252104 -5.93229029 3.19708289 -7.3984375 3.20117188 C-10.97399283 3.21213889 -14.54948586 3.22937081 -18.125 3.25 C-13.47661292 -1.39838708 -6.13395886 0.02588168 0 0 Z " fill="#DBF8D4" transform="translate(122.125,20.75)"/>
<path d="M0 0 C0.33 0 0.66 0 1 0 C1.01981934 0.80630859 1.03963867 1.61261719 1.06005859 2.44335938 C1.15585685 6.12921051 1.2653136 9.81453707 1.375 13.5 C1.4059375 14.7684375 1.436875 16.036875 1.46875 17.34375 C1.66821302 25.08222726 1.66821302 25.08222726 3.1015625 32.65625 C3.98635466 35.9492156 3.95874347 36.91249251 3 40 C0.49187986 37.49187986 -0.87644802 35.37065593 -2 32 C-2.66 31.34 -3.32 30.68 -4 30 C-3.01 28.515 -3.01 28.515 -2 27 C-1.34 27 -0.68 27 0 27 C0 18.09 0 9.18 0 0 Z " fill="#5E7878" transform="translate(13,100)"/>
<path d="M0 0 C0.99 0.495 0.99 0.495 2 1 C2 1.66 2 2.32 2 3 C2.5775 3.0825 3.155 3.165 3.75 3.25 C6.62131472 4.20710491 7.8743794 5.8743794 10 8 C12.63222962 9.25436187 12.63222962 9.25436187 15 10 C15 10.66 15 11.32 15 12 C15.721875 12.268125 16.44375 12.53625 17.1875 12.8125 C20 14 20 14 22.5 15.6875 C24.94986442 17.27120065 24.94986442 17.27120065 27.8125 16.6875 C28.534375 16.460625 29.25625 16.23375 30 16 C29.67 17.32 29.34 18.64 29 20 C25.28111761 19.49287967 22.26545761 18.88391785 19 17 C19 16.34 19 15.68 19 15 C18.30261719 14.73703125 17.60523438 14.4740625 16.88671875 14.203125 C13.74006256 12.89166342 10.79777804 11.39653845 7.8125 9.75 C6.76707031 9.18796875 5.72164062 8.6259375 4.64453125 8.046875 C1.49538366 5.60942546 0.87972659 3.82114371 0 0 Z " fill="#2F5253" transform="translate(220,164)"/>
<path d="M0 0 C10.56 0 21.12 0 32 0 C31.67 0.66 31.34 1.32 31 2 C27.14671804 2.22753655 23.29248285 2.42856775 19.4375 2.625 C17.80844727 2.72167969 17.80844727 2.72167969 16.14648438 2.8203125 C10.28070745 3.10557825 5.52128013 3.07543098 0 1 C0 0.67 0 0.34 0 0 Z " fill="#143232" transform="translate(106,218)"/>
<path d="M0 0 C2.0625 0.4375 2.0625 0.4375 4 1 C-16.21019494 10.51974121 -16.21019494 10.51974121 -21 9 C-20.505 8.360625 -20.01 7.72125 -19.5 7.0625 C-17.90197138 5.29025661 -17.90197138 5.29025661 -18 4 C-16.576875 4.0928125 -16.576875 4.0928125 -15.125 4.1875 C-10.18265094 4.20775553 -5.60277322 2.70179163 -1 1 C-0.67 0.67 -0.34 0.34 0 0 Z " fill="#7CC868" transform="translate(165,188)"/>
<path d="M0 0 C0.73080266 1.97746603 1.39421747 3.98072489 2 6 C1.67 6.66 1.34 7.32 1 8 C-0.32 8 -1.64 8 -3 8 C-3 6.68 -3 5.36 -3 4 C-3.33 4 -3.66 4 -4 4 C-4 4.66 -4 5.32 -4 6 C-6.66666667 5.33333333 -9.33333333 4.66666667 -12 4 C-12 2.68 -12 1.36 -12 0 C-7.74433453 -1.16063604 -4.3164922 -0.76173392 0 0 Z " fill="#264E4E" transform="translate(12,12)"/>
<path d="M0 0 C-1.28938495 3.86815484 -2.41166717 4.16765983 -6 6 C-13.15506062 9.03548026 -19.24099587 10.13150854 -27 10 C-24.3747497 8.62291558 -21.83015677 7.5612037 -19 6.6875 C-14.03643277 5.08528362 -9.28771389 3.05943169 -4.50390625 0.98828125 C-2 0 -2 0 0 0 Z " fill="#DAF8D2" transform="translate(167,190)"/>
<path d="M0 0 C0.66 0.66 1.32 1.32 2 2 C1.67 2.33 1.34 2.66 1 3 C-0.60830523 2.85214455 -2.21212543 2.65500441 -3.8125 2.4375 C-11.46242903 1.64853865 -18.60981394 3.07820221 -26 5 C-26 4.34 -26 3.68 -26 3 C-17.20960746 -0.02982465 -9.25105003 -2.20410924 0 0 Z " fill="#6BCC50" transform="translate(80,185)"/>
<path d="M0 0 C0.99 0.99 1.98 1.98 3 3 C3.66 2.67 4.32 2.34 5 2 C5 2.66 5 3.32 5 4 C5.66 4 6.32 4 7 4 C9 7 9 7 8.7578125 9.48046875 C8.54898438 10.37378906 8.34015625 11.26710938 8.125 12.1875 C7.92132813 13.08855469 7.71765625 13.98960938 7.5078125 14.91796875 C7.34023437 15.60503906 7.17265625 16.29210937 7 17 C4.66911211 14.12145363 3.16775203 11.38015172 1.8125 7.9375 C1.46832031 7.08027344 1.12414062 6.22304687 0.76953125 5.33984375 C0 3 0 3 0 0 Z " fill="#37A62A" transform="translate(99,71)"/>
<path d="M0 0 C0.66 0 1.32 0 2 0 C2 0.66 2 1.32 2 2 C3.32 2 4.64 2 6 2 C8.25 4.0625 8.25 4.0625 9.49609375 5.43359375 C11.93331821 7.97210546 14.70316189 10.12716739 17.42578125 12.3515625 C19 14 19 14 19 17 C18.34 17 17.68 17 17 17 C16.34 16.01 15.68 15.02 15 14 C14.01 13.67 13.02 13.34 12 13 C12 12.34 12 11.68 12 11 C11.34 11 10.68 11 10 11 C9.67 10.34 9.34 9.68 9 9 C8.360625 8.690625 7.72125 8.38125 7.0625 8.0625 C5 7 5 7 3 4 C2.01 3.67 1.02 3.34 0 3 C0 2.01 0 1.02 0 0 Z " fill="#2E5051" transform="translate(231,133)"/>
<path d="M0 0 C0.80308594 -0.02578125 1.60617188 -0.0515625 2.43359375 -0.078125 C3.48740234 0.08429688 3.48740234 0.08429688 4.5625 0.25 C5.2225 1.24 5.8825 2.23 6.5625 3.25 C9.12532742 3.97965366 9.12532742 3.97965366 11.5625 4.25 C11.2325 5.24 10.9025 6.23 10.5625 7.25 C7.09308454 6.79177532 3.88854951 6.35868317 0.5625 5.25 C-1.10371616 5.21125079 -2.77144172 5.2049714 -4.4375 5.25 C-5 3.3125 -5 3.3125 -5.4375 1.25 C-3.84882134 -0.33867866 -2.19060484 0.04205961 0 0 Z " fill="#28A819" transform="translate(128.4375,127.75)"/>
<path d="M0 0 C1.32 0 2.64 0 4 0 C4.33 2.97 4.66 5.94 5 9 C5.66 9 6.32 9 7 9 C7 11.31 7 13.62 7 16 C5.02 16.99 5.02 16.99 3 18 C3 17.34 3 16.68 3 16 C3.66 16 4.32 16 5 16 C3.63542255 12.48508012 3.63542255 12.48508012 1.9375 9.125 C0.62876356 6.15853073 0.36953746 3.20265802 0 0 Z " fill="#2F5453" transform="translate(15,1)"/>
<path d="M0 0 C-0.75 1.9375 -0.75 1.9375 -2 4 C-4.125 4.75 -4.125 4.75 -6 5 C-4.38731308 7.71224618 -2.75098126 10.37352812 -1 13 C-1.99 13 -2.98 13 -4 13 C-4 12.34 -4 11.68 -4 11 C-4.66 11 -5.32 11 -6 11 C-8.31146585 8.41115825 -9.22322027 6.32905597 -10 3 C-10.66 2.34 -11.32 1.68 -12 1 C-8.0186217 -0.3271261 -4.14954773 -0.06915913 0 0 Z " fill="#264747" transform="translate(148,216)"/>
<path d="M0 0 C1.62418745 -0.08090971 3.24951745 -0.13914995 4.875 -0.1875 C5.77992187 -0.22230469 6.68484375 -0.25710937 7.6171875 -0.29296875 C8.79667969 -0.14794922 8.79667969 -0.14794922 10 0 C10.66 0.99 11.32 1.98 12 3 C12.99 3.66 13.98 4.32 15 5 C15 5.66 15 6.32 15 7 C15.639375 7.12375 16.27875 7.2475 16.9375 7.375 C17.9584375 7.684375 17.9584375 7.684375 19 8 C19.33 8.66 19.66 9.32 20 10 C15.27934033 8.45730076 10.58335908 6.92205381 6 5 C6 4.34 6 3.68 6 3 C5.195625 2.87625 4.39125 2.7525 3.5625 2.625 C2.716875 2.41875 1.87125 2.2125 1 2 C0.67 1.34 0.34 0.68 0 0 Z " fill="#79CD64" transform="translate(74,187)"/>
<path d="M0 0 C0.33 0.99 0.66 1.98 1 3 C1.66 3 2.32 3 3 3 C3 2.01 3 1.02 3 0 C7 0 11 0 15 0 C14.67 1.65 14.34 3.3 14 5 C13.38125 4.67 12.7625 4.34 12.125 4 C10.08981656 2.85806765 10.08981656 2.85806765 8 3 C8 3.66 8 4.32 8 5 C4.7 5 1.4 5 -2 5 C-1.34 3.35 -0.68 1.7 0 0 Z " fill="#325857" transform="translate(8,183)"/>
<path d="M0 0 C0 0.66 0 1.32 0 2 C-0.66 2 -1.32 2 -2 2 C-2 2.66 -2 3.32 -2 4 C-3.0725 4.721875 -4.145 5.44375 -5.25 6.1875 C-8.08186396 8.10015005 -9.65935057 9.72403799 -11.25 12.75 C-13 16 -13 16 -16 17 C-16.66 15.02 -17.32 13.04 -18 11 C-17.195625 10.87625 -16.39125 10.7525 -15.5625 10.625 C-14.716875 10.41875 -13.87125 10.2125 -13 10 C-12.67 9.34 -12.34 8.68 -12 8 C-11.34 8 -10.68 8 -10 8 C-10 7.34 -10 6.68 -10 6 C-8.3203125 4.4921875 -8.3203125 4.4921875 -6.125 2.875 C-5.40570313 2.33617188 -4.68640625 1.79734375 -3.9453125 1.2421875 C-2 0 -2 0 0 0 Z " fill="#325151" transform="translate(242,63)"/>
<path d="M0 0 C-11.90681818 9.12954545 -11.90681818 9.12954545 -18 10 C-13.91261419 4.29368883 -7.5670375 -2.52234583 0 0 Z " fill="#77C566" transform="translate(77,38)"/>
<path d="M0 0 C16.8929385 2.52164009 16.8929385 2.52164009 24 8 C23.01 8.33 22.02 8.66 21 9 C19 8 17 7 15 6 C10.08799964 4.61794972 5.03898805 3.77522893 0 3 C0 2.01 0 1.02 0 0 Z " fill="#77C962" transform="translate(147,28)"/>
<path d="M0 0 C1.8871875 0.0309375 1.8871875 0.0309375 3.8125 0.0625 C3.8125 0.7225 3.8125 1.3825 3.8125 2.0625 C5.1325 1.7325 6.4525 1.4025 7.8125 1.0625 C8.1425 2.0525 8.4725 3.0425 8.8125 4.0625 C7.575 4.206875 6.3375 4.35125 5.0625 4.5 C2.24745501 4.84938502 -0.4576497 5.26629366 -3.1875 6.0625 C-3.1875 5.0725 -3.1875 4.0825 -3.1875 3.0625 C-4.5075 3.0625 -5.8275 3.0625 -7.1875 3.0625 C-7.1875 2.4025 -7.1875 1.7425 -7.1875 1.0625 C-4.43671116 0.14557039 -2.82801087 -0.04636083 0 0 Z " fill="#229C14" transform="translate(146.1875,119.9375)"/>
<path d="M0 0 C0.66 0.33 1.32 0.66 2 1 C2 1.66 2 2.32 2 3 C2.99 3 3.98 3 5 3 C5.625 5.8125 5.625 5.8125 6 9 C5.01 10.485 5.01 10.485 4 12 C4 11.34 4 10.68 4 10 C3.01 10 2.02 10 1 10 C1 11.98 1 13.96 1 16 C0.01 16 -0.98 16 -2 16 C-1.34 10.72 -0.68 5.44 0 0 Z " fill="#2EA522" transform="translate(178,135)"/>
<path d="M0 0 C4.62 0 9.24 0 14 0 C12.515 2.475 12.515 2.475 11 5 C8.125 5.625 8.125 5.625 5 5 C2.125 2.5 2.125 2.5 0 0 Z " fill="#2A4D4D" transform="translate(39,0)"/>
<path d="M0 0 C0.99 0.86625 1.98 1.7325 3 2.625 C8.64667984 7.45034459 14.18208934 11.9319402 21 15 C21 15.33 21 15.66 21 16 C18.69 15.67 16.38 15.34 14 15 C14 14.34 14 13.68 14 13 C13.01 13 12.02 13 11 13 C10 12 9 11 8 10 C6.989375 9.5875 5.97875 9.175 4.9375 8.75 C2 7 2 7 0.625 3.3125 C0.41875 2.219375 0.2125 1.12625 0 0 Z " fill="#D0F4D1" transform="translate(107,119)"/>
<path d="M0 0 C1.98 0.99 1.98 0.99 4 2 C4 6.29 4 10.58 4 15 C4.66 15 5.32 15 6 15 C6 16.65 6 18.3 6 20 C1.81999901 15.42190367 -0.1875 9.08177941 -0.1875 2.9375 C-0.125625 1.968125 -0.06375 0.99875 0 0 Z " fill="#409D34" transform="translate(32,123)"/>
<path d="M0 0 C2.3125 0.1875 2.3125 0.1875 5 1 C6.80174594 3.38087857 7.85113974 5.25569868 8.4375 8.1875 C8.8486428 10.21995468 8.8486428 10.21995468 11.0625 11.25 C11.701875 11.4975 12.34125 11.745 13 12 C12.67 12.99 12.34 13.98 12 15 C6.65637492 11.43758328 3.38152494 6.35002073 0 1 C0 0.67 0 0.34 0 0 Z " fill="#DAF6D8" transform="translate(78,112)"/>
<path d="M0 0 C1.1171875 3.71875 1.1171875 3.71875 0.0625 6.25 C-0.4634375 7.11625 -0.4634375 7.11625 -1 8 C-0.34 8 0.32 8 1 8 C0.34 10.97 -0.32 13.94 -1 17 C-1.66 17 -2.32 17 -3 17 C-3.33 17.99 -3.66 18.98 -4 20 C-4.5644718 12.66186666 -2.55327104 6.83911885 0 0 Z " fill="#57AB4C" transform="translate(36,80)"/>
<path d="M0 0 C0 0.66 0 1.32 0 2 C-0.66 2 -1.32 2 -2 2 C-2.66 3.65 -3.32 5.3 -4 7 C-4.99 6.67 -5.98 6.34 -7 6 C-7 6.66 -7 7.32 -7 8 C-9.31 8.33 -11.62 8.66 -14 9 C-14 8.34 -14 7.68 -14 7 C-11.4453125 5.2734375 -11.4453125 5.2734375 -8.125 3.375 C-7.03445312 2.74335938 -5.94390625 2.11171875 -4.8203125 1.4609375 C-2 0 -2 0 0 0 Z " fill="#203636" transform="translate(189,197)"/>
<path d="M0 0 C3 1 3 1 4.1875 3.0625 C4.455625 3.701875 4.72375 4.34125 5 5 C4.34 5 3.68 5 3 5 C2.67 5.66 2.34 6.32 2 7 C-0.0625 8.125 -0.0625 8.125 -2 9 C-2 9.99 -2 10.98 -2 12 C-2 12.66 -2 13.32 -2 14 C-2.99 13.67 -3.98 13.34 -5 13 C-5.33 12.01 -5.66 11.02 -6 10 C-5.34 9.01 -4.68 8.02 -4 7 C-3.34 7 -2.68 7 -2 7 C-0.49069817 3.6136749 -0.49069817 3.6136749 0 0 Z " fill="#4DC235" transform="translate(59,48)"/>
<path d="M0 0 C0.33 0.66 0.66 1.32 1 2 C0.67 2.99 0.34 3.98 0 5 C0.66 5.33 1.32 5.66 2 6 C1.34 6 0.68 6 0 6 C0.495 6.45375 0.99 6.9075 1.5 7.375 C3 9 3 9 3 11 C-0.3 11 -3.6 11 -7 11 C-5.6875 8.5 -5.6875 8.5 -4 6 C-3.01 6 -2.02 6 -1 6 C-1.33 4.35 -1.66 2.7 -2 1 C-1.34 0.67 -0.68 0.34 0 0 Z " fill="#375859" transform="translate(10,218)"/>
<path d="M0 0 C0.8531488 2.38881665 1.12563748 3.62308755 0.3125 6.0625 C-1.18464888 8.27257692 -2.79042813 9.52695209 -5 11 C-4.855625 11.721875 -4.71125 12.44375 -4.5625 13.1875 C-4.04166667 15.79166667 -3.52083333 18.39583333 -3 21 C-5.4606744 18.93620857 -6.88341243 17.26385608 -8.1875 14.3125 C-7.92401702 9.65763394 -5.62637417 7.42292433 -2.6640625 3.953125 C-0.94955676 2.09882273 -0.94955676 2.09882273 0 0 Z " fill="#2F8D29" transform="translate(105,91)"/>
<path d="M0 0 C0.144375 0.78375 0.28875 1.5675 0.4375 2.375 C0.87798925 4.96421018 0.87798925 4.96421018 2 7 C1.01 7 0.02 7 -1 7 C-1 7.99 -1 8.98 -1 10 C-1.66 10 -2.32 10 -3 10 C-5 7 -5 7 -4.5 4.4375 C-4.335 3.633125 -4.17 2.82875 -4 2 C-4.66 1.34 -5.32 0.68 -6 0 C-3.50907189 -1.24546405 -2.58919267 -0.7767578 0 0 Z " fill="#2A4B4B" transform="translate(35,217)"/>
<path d="M0 0 C2 1 2 1 3.25390625 4.203125 C3.69783007 5.54956061 4.13368975 6.8986751 4.5625 8.25 C4.78357422 8.91902344 5.00464844 9.58804688 5.23242188 10.27734375 C6.3854552 13.82353083 7.36603345 17.32441866 8 21 C7.34 21 6.68 21 6 21 C0.44419134 7.55125285 0.44419134 7.55125285 0 0 Z " fill="#345757" transform="translate(70,208)"/>
<path d="M0 0 C2.475 0.495 2.475 0.495 5 1 C5.33 1.99 5.66 2.98 6 4 C9.51190809 5.22969878 9.51190809 5.22969878 13 6 C13 7.32 13 8.64 13 10 C13.66 10 14.32 10 15 10 C15 10.66 15 11.32 15 12 C14.01 12 13.02 12 12 12 C12 11.34 12 10.68 12 10 C11.34 10 10.68 10 10 10 C10 9.01 10 8.02 10 7 C9.01 7 8.02 7 7 7 C7 6.34 7 5.68 7 5 C6.21625 4.690625 5.4325 4.38125 4.625 4.0625 C2 3 2 3 0 2 C0 1.34 0 0.68 0 0 Z " fill="#2F4F51" transform="translate(235,123)"/>
<path d="M0 0 C5.33333333 4 10.66666667 8 16 12 C15.67 12.99 15.34 13.98 15 15 C13.66102417 14.04956626 12.32894573 13.08940853 11 12.125 C10.2575 11.59132813 9.515 11.05765625 8.75 10.5078125 C8.1725 10.01023437 7.595 9.51265625 7 9 C7 8.34 7 7.68 7 7 C6.21625 6.71125 5.4325 6.4225 4.625 6.125 C2 5 2 5 0 3 C0 2.01 0 1.02 0 0 Z " fill="#304F51" transform="translate(234,112)"/>
<path d="M0 0 C0.66 0 1.32 0 2 0 C0.78060122 3.15011351 -0.54781455 6.23495904 -1.9375 9.3125 C-3.80669703 13.4849398 -5.43775121 17.70381583 -7 22 C-7.97591583 18.61682513 -7.85856655 16.4342662 -7 13 C-6.34 13 -5.68 13 -5 13 C-5 11.68 -5 10.36 -5 9 C-4.34 9 -3.68 9 -3 9 C-2.814375 7.329375 -2.814375 7.329375 -2.625 5.625 C-2 2 -2 2 0 0 Z " fill="#DCF9D7" transform="translate(41,66)"/>
<path d="M0 0 C0.66 0.66 1.32 1.32 2 2 C2.66 1.67 3.32 1.34 4 1 C4.061875 1.78375 4.12375 2.5675 4.1875 3.375 C4.455625 4.24125 4.72375 5.1075 5 6 C7.47636012 7.37466625 7.47636012 7.37466625 10 8 C9.67 8.66 9.34 9.32 9 10 C8.34 10 7.68 10 7 10 C6.67 10.66 6.34 11.32 6 12 C4.66072279 10.54712339 3.32873153 9.08752741 2 7.625 C1.2575 6.81289063 0.515 6.00078125 -0.25 5.1640625 C-2 3 -2 3 -2 1 C-1.34 0.67 -0.68 0.34 0 0 Z " fill="#304646" transform="translate(202,35)"/>
<path d="M0 0 C3.63 0 7.26 0 11 0 C8.3144406 2.6855594 5.62378672 3.06049974 2 4 C1.67 3.67 1.34 3.34 1 3 C-2.35433109 3.94933899 -5.69246505 4.89748835 -9 6 C-9.99 5.67 -10.98 5.34 -12 5 C-7.77050005 2.58314288 -4.87664009 1.65166856 0 2 C0 1.34 0 0.68 0 0 Z " fill="#6FD355" transform="translate(102,25)"/>
<path d="M0 0 C0.33 0 0.66 0 1 0 C1.76173392 4.3164922 2.16063604 7.74433453 1 12 C0.34 12 -0.32 12 -1 12 C-0.67 14.31 -0.34 16.62 0 19 C-1.32 18.01 -2.64 17.02 -4 16 C-3.69255859 14.89591797 -3.69255859 14.89591797 -3.37890625 13.76953125 C-3.10949219 12.79371094 -2.84007812 11.81789062 -2.5625 10.8125 C-2.29566406 9.84957031 -2.02882812 8.88664063 -1.75390625 7.89453125 C-1.07119982 5.27336303 -0.50107805 2.661065 0 0 Z " fill="#63C052" transform="translate(48,161)"/>
<path d="M0 0 C1 4 1 4 2 8 C-2.62 10.64 -7.24 13.28 -12 16 C-12.33 15.34 -12.66 14.68 -13 14 C-12.38511719 13.62488281 -11.77023438 13.24976563 -11.13671875 12.86328125 C-5.39845043 9.22995984 -2.19105917 6.57317751 0 0 Z " fill="#48AC44" transform="translate(176,145)"/>
<path d="M0 0 C7.55607786 1.10355089 14.74822618 2.59343789 22 5 C22 5.33 22 5.66 22 6 C16.22192976 6.2358396 11.48675196 5.86783046 6 4 C6 3.34 6 2.68 6 2 C4.02 2 2.04 2 0 2 C0 1.34 0 0.68 0 0 Z " fill="#86CE74" transform="translate(138,24)"/>
<path d="M0 0 C2.64 0.66 5.28 1.32 8 2 C8 1.34 8 0.68 8 0 C9.32 0 10.64 0 12 0 C12.33 0.99 12.66 1.98 13 3 C14.65 3.33 16.3 3.66 18 4 C17.67 4.99 17.34 5.98 17 7 C15.7934375 6.566875 15.7934375 6.566875 14.5625 6.125 C11.03803355 5.01201059 7.58722622 4.29674201 3.953125 3.66015625 C2 3 2 3 0 0 Z " fill="#224343" transform="translate(167,13)"/>
<path d="M0 0 C2.97 0.33 5.94 0.66 9 1 C8.484375 1.598125 7.96875 2.19625 7.4375 2.8125 C6.7259375 3.8953125 6.7259375 3.8953125 6 5 C6.33 5.99 6.66 6.98 7 8 C4.13792848 6.71700242 1.9754912 5.469364 0 3 C0 2.01 0 1.02 0 0 Z " fill="#325A59" transform="translate(142,221)"/>
<path d="M0 0 C2.475 0.495 2.475 0.495 5 1 C5.67364661 3.08108685 6.33866798 5.1649671 7 7.25 C7.37125 8.41015625 7.7425 9.5703125 8.125 10.765625 C9 14 9 14 9 18 C8.34 18 7.68 18 7 18 C6.66226563 16.86820313 6.32453125 15.73640625 5.9765625 14.5703125 C5.52637362 13.08844078 5.07583457 11.60667541 4.625 10.125 C4.40328125 9.37863281 4.1815625 8.63226563 3.953125 7.86328125 C2.6829012 3.53656848 2.6829012 3.53656848 0 0 Z " fill="#325555" transform="translate(77,211)"/>
<path d="M0 0 C-1.3125 1.5 -1.3125 1.5 -3 3 C-3.99 3 -4.98 3 -6 3 C-6 3.66 -6 4.32 -6 5 C-8.64 4.67 -11.28 4.34 -14 4 C-13.01 3.67 -12.02 3.34 -11 3 C-10.67 2.01 -10.34 1.02 -10 0 C-6.30458414 -0.95024979 -3.69541586 -0.95024979 0 0 Z " fill="#223B3C" transform="translate(69,207)"/>
<path d="M0 0 C2.31 0.33 4.62 0.66 7 1 C7 1.66 7 2.32 7 3 C7.5775 3.103125 8.155 3.20625 8.75 3.3125 C11.35661158 4.10896465 12.9735311 5.19065277 15 7 C15 7.66 15 8.32 15 9 C9.26800429 7.53025751 4.66416601 4.55513098 0 1 C0 0.67 0 0.34 0 0 Z " fill="#C9EFC6" transform="translate(106,143)"/>
<path d="M0 0 C3 0 3 0 4.71875 1.71484375 C5.3065625 2.44832031 5.894375 3.18179688 6.5 3.9375 C9.14012046 7.28891586 9.14012046 7.28891586 13 9 C13 10.65 13 12.3 13 14 C11.87105124 13.06725891 10.74699124 12.12859878 9.625 11.1875 C8.99851563 10.66542969 8.37203125 10.14335937 7.7265625 9.60546875 C6 8 6 8 4 5 C3.01 4.67 2.02 4.34 1 4 C0.3125 1.9375 0.3125 1.9375 0 0 Z " fill="#2F5051" transform="translate(237,131)"/>
<path d="M0 0 C0 0.66 0 1.32 0 2 C-0.99 2 -1.98 2 -3 2 C-3 2.66 -3 3.32 -3 4 C-4.423125 4.2165625 -4.423125 4.2165625 -5.875 4.4375 C-8.8934494 4.82935399 -8.8934494 4.82935399 -11 6 C-13.125 5.0625 -13.125 5.0625 -15 4 C-5.77448747 -0.59225513 -5.77448747 -0.59225513 0 0 Z " fill="#1A3533" transform="translate(54,211)"/>
<path d="M0 0 C4.6029598 1.72497507 8.93255824 3.9095871 13.3125 6.125 C14.05306641 6.49753906 14.79363281 6.87007812 15.55664062 7.25390625 C17.37201217 8.16744806 19.18613282 9.08347487 21 10 C16.66764067 11.36527864 14.58399168 10.21706021 10.5 8.25 C9.3759375 7.71890625 8.251875 7.1878125 7.09375 6.640625 C4.47951311 5.25428725 2.20452576 3.96678279 0 2 C0 1.34 0 0.68 0 0 Z " fill="#3E9F36" transform="translate(107,145)"/>
<path d="M0 0 C1 3 1 3 0 6 C-0.61875 6.2475 -1.2375 6.495 -1.875 6.75 C-5.18768563 8.69863861 -5.68618632 11.45270306 -7 15 C-7.66 15 -8.32 15 -9 15 C-9 15.99 -9 16.98 -9 18 C-9.66 18 -10.32 18 -11 18 C-8.68177534 11.25607371 -4.56924312 5.41539925 0 0 Z " fill="#70BA61" transform="translate(51,55)"/>
<path d="M0 0 C-3.84576695 1.3844761 -7.02501804 0.59624729 -11 0 C-13.67401531 -0.0842947 -16.32365144 -0.04695348 -19 0 C-11.42559607 -5.04960262 -7.63931086 -3.99327613 0 0 Z " fill="#CFF3C8" transform="translate(80,190)"/>
<path d="M0 0 C0.66 0.33 1.32 0.66 2 1 C-0.0184217 3.16793442 -1.77032517 4.87307444 -4.375 6.3125 C-7.97120373 8.62434526 -10.35313366 11.68004737 -13 15 C-13.99 14.34 -14.98 13.68 -16 13 C-15.01 12.67 -14.02 12.34 -13 12 C-12.67 11.01 -12.34 10.02 -12 9 C-10.00808238 7.34530803 -8.03653505 5.81660854 -5.9375 4.3125 C-5.36966797 3.89677734 -4.80183594 3.48105469 -4.21679688 3.05273438 C-2.81596827 2.02859918 -1.40859652 1.01342465 0 0 Z " fill="#D3DDDD" transform="translate(60,24)"/>
<path d="M0 0 C4.69023454 0.56606279 9.34500026 1.18537505 14 2 C14 2.99 14 3.98 14 5 C15.32 5 16.64 5 18 5 C18 5.99 18 6.98 18 8 C17.236875 7.690625 16.47375 7.38125 15.6875 7.0625 C13.81210323 6.32106407 11.91315348 5.63771783 10 5 C10 4.34 10 3.68 10 3 C8.081875 2.814375 8.081875 2.814375 6.125 2.625 C2.25 2.25 2.25 2.25 0 0 Z " fill="#E2FADB" transform="translate(150,26)"/>
<path d="M0 0 C0.99 0 1.98 0 3 0 C4.17154293 2.28929053 5.33738074 4.58118362 6.5 6.875 C6.83386719 7.52597656 7.16773438 8.17695313 7.51171875 8.84765625 C10 13.7734375 10 13.7734375 10 16 C9.01 16 8.02 16 7 16 C6.54625 14.9275 6.0925 13.855 5.625 12.75 C4.75710463 10.70571563 3.87324429 8.76650265 2.8125 6.8125 C2 5 2 5 2 1 C1.34 0.67 0.68 0.34 0 0 Z " fill="#365858" transform="translate(153,213)"/>
<path d="M0 0 C7.59 0 15.18 0 23 0 C19.65036243 3.34963757 15.64425274 2.9693213 11.0625 3.1875 C7.08377424 3.14916931 3.76359639 2.25453213 0 1 C0 0.67 0 0.34 0 0 Z " fill="#C3F4C0" transform="translate(140,159)"/>
<path d="M0 0 C0.90105469 0.19464844 1.80210937 0.38929688 2.73046875 0.58984375 C3.41753906 0.74582031 4.10460937 0.90179688 4.8125 1.0625 C3.8225 1.5575 3.8225 1.5575 2.8125 2.0625 C2.8125 2.7225 2.8125 3.3825 2.8125 4.0625 C-2.56055699 4.41483161 -2.56055699 4.41483161 -5.1875 4.0625 C-7.1875 2.0625 -7.1875 2.0625 -8.1875 0.0625 C-4.80475734 -1.06508089 -3.41971777 -0.75500262 0 0 Z " fill="#48B73C" transform="translate(133.1875,156.9375)"/>
<path d="M0 0 C-0.33 0.66 -0.66 1.32 -1 2 C-6.52677733 2.19392201 -10.75614911 1.7479503 -16 0 C-10.38998128 -3.32445554 -5.99016382 -1.87926708 0 0 Z " fill="#69D54D" transform="translate(105,194)"/>
<path d="M0 0 C1.32 0.33 2.64 0.66 4 1 C4 1.66 4 2.32 4 3 C3.34 3 2.68 3 2 3 C1.71125 3.78375 1.4225 4.5675 1.125 5.375 C0 8 0 8 -2 10 C-3.9451 7.08235 -4.45276317 5.37462715 -5 2 C-4.34 2 -3.68 2 -3 2 C-2.34 2.66 -1.68 3.32 -1 4 C-0.67 2.68 -0.34 1.36 0 0 Z " fill="#4EB440" transform="translate(200,151)"/>
<path d="M0 0 C2.5393228 3.41831915 3.3636198 5.75776898 3 10 C1.0625 9.3125 1.0625 9.3125 -1 8 C-1.75 5.375 -1.75 5.375 -2 3 C-2.99 2.67 -3.98 2.34 -5 2 C-2 0 -2 0 0 0 Z " fill="#26941D" transform="translate(77,110)"/>
<path d="M0 0 C2.97 0 5.94 0 9 0 C8.34 2.31 7.68 4.62 7 7 C6.01 7 5.02 7 4 7 C4 5.35 4 3.7 4 2 C2.68 2 1.36 2 0 2 C0 1.34 0 0.68 0 0 Z " fill="#234647" transform="translate(2,68)"/>
<path d="M0 0 C3.3 1.98 6.6 3.96 10 6 C9.67 6.99 9.34 7.98 9 9 C5.0873016 7.6957672 2.62689759 6.21065261 0 3 C0 2.01 0 1.02 0 0 Z " fill="#ECF5F5" transform="translate(180,22)"/>
<path d="M0 0 C3.96 0 7.92 0 12 0 C12 1.32 12 2.64 12 4 C4.5 3.375 4.5 3.375 0 0 Z " fill="#27A81A" transform="translate(166,128)"/>
<path d="M0 0 C2 2 2 2 2.1953125 5.0390625 C2.17210938 6.22242187 2.14890625 7.40578125 2.125 8.625 C2.10695313 9.81351563 2.08890625 11.00203125 2.0703125 12.2265625 C2.04710938 13.14179687 2.02390625 14.05703125 2 15 C1.01 15.495 1.01 15.495 0 16 C-0.625 13.6875 -0.625 13.6875 -1 11 C-0.34 10.01 0.32 9.02 1 8 C0.34 8 -0.32 8 -1 8 C-0.67 5.36 -0.34 2.72 0 0 Z " fill="#2AA51D" transform="translate(66,78)"/>
<path d="M0 0 C6.6 0 13.2 0 20 0 C20 0.33 20 0.66 20 1 C18.02 1.33 16.04 1.66 14 2 C14 2.33 14 2.66 14 3 C8.80790596 3.21192221 4.873261 2.5912689 0 1 C0 0.67 0 0.34 0 0 Z " fill="#20393A" transform="translate(106,218)"/>
<path d="M0 0 C1.32 0 2.64 0 4 0 C2.6910959 3.92671231 1.2923796 6.43926031 -2 9 C-5.25 9.75 -5.25 9.75 -8 10 C-5.64619703 6.07699505 -3.35535069 5.16142685 1 4 C0.67 2.68 0.34 1.36 0 0 Z " fill="#5EBC4B" transform="translate(193,162)"/>
<path d="M0 0 C0.99 0.33 1.98 0.66 3 1 C3 1.66 3 2.32 3 3 C3.86625 3.37125 3.86625 3.37125 4.75 3.75 C7.3002997 5.16683317 9.01785701 6.87627537 11 9 C6.87248551 8.39301257 3.6678852 6.96189209 0 5 C0 3.35 0 1.7 0 0 Z " fill="#305454" transform="translate(0,123)"/>
<path d="M0 0 C0.99 0.33 1.98 0.66 3 1 C3 1.66 3 2.32 3 3 C2.34 3 1.68 3 1 3 C1.309375 3.8971875 1.309375 3.8971875 1.625 4.8125 C2 7 2 7 0 10 C-0.66 10 -1.32 10 -2 10 C-2 10.66 -2 11.32 -2 12 C-2.66 12 -3.32 12 -4 12 C-4 11.01 -4 10.02 -4 9 C-3.34 9 -2.68 9 -2 9 C-1.34 6.03 -0.68 3.06 0 0 Z " fill="#28A519" transform="translate(37,88)"/>
<path d="M0 0 C0.99 0 1.98 0 3 0 C2.51300383 4.38296556 1.16604109 6.03183648 -2 9 C-2.33 9.99 -2.66 10.98 -3 12 C-3.66 12 -4.32 12 -5 12 C-3.87143971 7.57257117 -2.78443571 3.67545514 0 0 Z " fill="#1D3835" transform="translate(217,163)"/>
<path d="M0 0 C0.99 0 1.98 0 3 0 C1.86225545 3.41323365 1.09696878 3.92000521 -1.75 5.9375 C-2.82507813 6.71287109 -2.82507813 6.71287109 -3.921875 7.50390625 C-4.60765625 7.99761719 -5.2934375 8.49132812 -6 9 C-7.67344761 10.32481269 -9.34348188 11.65407903 -11 13 C-9.60249952 9.84164893 -7.94801766 7.67727175 -5.5 5.25 C-4.8915625 4.63640625 -4.283125 4.0228125 -3.65625 3.390625 C-2 2 -2 2 0 2 C0 1.34 0 0.68 0 0 Z " fill="#345556" transform="translate(11,97)"/>
<path d="M0 0 C1.37432457 3.81756824 0.67975039 7.07255329 0 11 C-0.66 11 -1.32 11 -2 11 C-2 11.99 -2 12.98 -2 14 C-2.66 14 -3.32 14 -4 14 C-3.46148032 8.72250715 -2.22656164 4.74354436 0 0 Z " fill="#7FCB6F" transform="translate(43,178)"/>
<path d="M0 0 C0.66 0 1.32 0 2 0 C1.35346673 6.95023264 -0.86027248 13.38177303 -3 20 C-4.37344385 15.60155678 -3.24307502 12.07495445 -2.0625 7.75 C-1.86720703 7.00492188 -1.67191406 6.25984375 -1.47070312 5.4921875 C-0.98895802 3.65920614 -0.49560775 1.82928182 0 0 Z " fill="#E0FAD8" transform="translate(41,175)"/>
<path d="M0 0 C3.73487777 0.4979837 5.81237635 0.87491756 9 3 C9 3.66 9 4.32 9 5 C9.33 5.99 9.66 6.98 10 8 C8.35 7.67 6.7 7.34 5 7 C4.87625 6.071875 4.87625 6.071875 4.75 5.125 C4.18741541 2.81562433 4.18741541 2.81562433 1.9375 1.75 C1.298125 1.5025 0.65875 1.255 0 1 C0 0.67 0 0.34 0 0 Z " fill="#259C1C" transform="translate(112,121)"/>
<path d="M0 0 C1.32 0 2.64 0 4 0 C7 3.21428571 7 3.21428571 7 6 C9.475 6.99 9.475 6.99 12 8 C11.67 8.99 11.34 9.98 11 11 C11 10.34 11 9.68 11 9 C10.38125 8.9175 9.7625 8.835 9.125 8.75 C7 8 7 8 6.0625 6.0625 C5.12720697 3.73547609 5.12720697 3.73547609 2.375 2.75 C1.59125 2.5025 0.8075 2.255 0 2 C0 1.34 0 0.68 0 0 Z " fill="#2E4F50" transform="translate(238,83)"/>
<path d="M0 0 C3.57335247 1.19111749 4.41716762 2.43356308 6.6875 5.375 C7.31011719 6.16648438 7.93273438 6.95796875 8.57421875 7.7734375 C10 10 10 10 10 13 C6.53265225 11.84421742 6.22908466 11.21466028 4.4375 8.1875 C4.02371094 7.50042969 3.60992187 6.81335938 3.18359375 6.10546875 C2.05535572 4.09847107 1.00899537 2.06913796 0 0 Z " fill="#335857" transform="translate(46,216)"/>
<path d="M0 0 C-3.18900456 2.12600304 -5.90414569 3.02136239 -9.5625 4.125 C-11.29693359 4.65480469 -11.29693359 4.65480469 -13.06640625 5.1953125 C-16 6 -16 6 -18 6 C-18 5.34 -18 4.68 -18 4 C-16.1291122 3.32187886 -14.25305707 2.6580054 -12.375 2 C-11.33085938 1.62875 -10.28671875 1.2575 -9.2109375 0.875 C-5.98225494 -0.00483564 -3.32755706 -0.15988262 0 0 Z " fill="#7BC668" transform="translate(64,188)"/>
<path d="M0 0 C1.55078125 1.20703125 1.55078125 1.20703125 3 3 C2.85546875 5.26171875 2.85546875 5.26171875 2.1875 7.6875 C1.97480469 8.49574219 1.76210938 9.30398437 1.54296875 10.13671875 C1.27419922 11.05904297 1.27419922 11.05904297 1 12 C-0.55078125 10.79296875 -0.55078125 10.79296875 -2 9 C-1.85546875 6.73828125 -1.85546875 6.73828125 -1.1875 4.3125 C-0.97480469 3.50425781 -0.76210938 2.69601563 -0.54296875 1.86328125 C-0.36378906 1.24839844 -0.18460938 0.63351563 0 0 Z " fill="#49605F" transform="translate(26,162)"/>
<path d="M0 0 C0.33 0 0.66 0 1 0 C1.02712066 1.43739513 1.04645067 2.87493863 1.0625 4.3125 C1.07410156 5.11300781 1.08570313 5.91351563 1.09765625 6.73828125 C1 9 1 9 0 12 C-0.66 12 -1.32 12 -2 12 C-2 13.32 -2 14.64 -2 16 C-2.66 16 -3.32 16 -4 16 C-2.68 10.72 -1.36 5.44 0 0 Z " fill="#D0F1CC" transform="translate(212,128)"/>
<path d="M0 0 C1.32 0.33 2.64 0.66 4 1 C2.02 3.31 0.04 5.62 -2 8 C-2.99 7.67 -3.98 7.34 -5 7 C-3.86873442 3.60620325 -2.77333918 2.21867135 0 0 Z " fill="#309A29" transform="translate(145,124)"/>
<path d="M0 0 C0.33 0 0.66 0 1 0 C0.67 5.94 0.34 11.88 0 18 C-0.33 18 -0.66 18 -1 18 C-1 16.35 -1 14.7 -1 13 C-1.99 12.67 -2.98 12.34 -4 12 C-3.34 11.01 -2.68 10.02 -2 9 C-1.33386665 6.72461677 -1.33386665 6.72461677 -0.875 4.3125 C-0.70742187 3.50425781 -0.53984375 2.69601563 -0.3671875 1.86328125 C-0.24601563 1.24839844 -0.12484375 0.63351563 0 0 Z " fill="#214241" transform="translate(12,99)"/>
<path d="M0 0 C1.9375 0.1875 1.9375 0.1875 4 1 C5.25 3.0625 5.25 3.0625 6 5 C3.36 5 0.72 5 -2 5 C-1.125 1.125 -1.125 1.125 0 0 Z " fill="#2E4F50" transform="translate(17,224)"/>
<path d="M0 0 C0.33 0.99 0.66 1.98 1 3 C-0.9375 6.1875 -0.9375 6.1875 -3 9 C-1.68 8.34 -0.36 7.68 1 7 C0.34 8.32 -0.32 9.64 -1 11 C-2.32 10.34 -3.64 9.68 -5 9 C-3.7508258 5.54074837 -2.32472205 2.85306797 0 0 Z " fill="#315555" transform="translate(6,154)"/>
<path d="M0 0 C3.40320742 1.01176437 4.75725331 1.64843582 6.8125 4.625 C7.204375 5.40875 7.59625 6.1925 8 7 C5.6875 7.25 5.6875 7.25 3 7 C1.1875 5.1875 1.1875 5.1875 0 3 C0 2.01 0 1.02 0 0 Z " fill="#67C055" transform="translate(185,49)"/>
<path d="M0 0 C1.98 0.495 1.98 0.495 4 1 C3.34 1 2.68 1 2 1 C2.495 1.78375 2.99 2.5675 3.5 3.375 C5 6 5 6 5 8 C5.66 8 6.32 8 7 8 C7 8.66 7 9.32 7 10 C6.01 10 5.02 10 4 10 C1 6.66666667 1 6.66666667 1 4 C0.34 3.67 -0.32 3.34 -1 3 C-0.67 2.01 -0.34 1.02 0 0 Z " fill="#325858" transform="translate(137,219)"/>
<path d="M0 0 C4.95 1.65 9.9 3.3 15 5 C15 5.33 15 5.66 15 6 C9.72684667 5.5547115 4.98229776 4.91626837 0 3 C0 2.01 0 1.02 0 0 Z " fill="#E3FDDE" transform="translate(84,193)"/>
<path d="M0 0 C2.64 0 5.28 0 8 0 C8 0.66 8 1.32 8 2 C6.35 2.33 4.7 2.66 3 3 C3 3.99 3 4.98 3 6 C2.34 6 1.68 6 1 6 C0.67 4.02 0.34 2.04 0 0 Z " fill="#2E5554" transform="translate(8,180)"/>
<path d="M0 0 C2.3125 0.1875 2.3125 0.1875 5 1 C6.875 3.375 6.875 3.375 8 6 C7.67 6.99 7.34 7.98 7 9 C4.03595495 6.19195732 1.55500981 3.81684226 0 0 Z " fill="#51B241" transform="translate(42,154)"/>
<path d="M0 0 C3.23861303 1.44424635 5.61969163 3.25772247 8.25 5.625 C8.95640625 6.25664062 9.6628125 6.88828125 10.390625 7.5390625 C10.92171875 8.02117187 11.4528125 8.50328125 12 9 C11.01 9.495 11.01 9.495 10 10 C8.82780457 9.21654285 7.66236332 8.42297164 6.5 7.625 C5.8503125 7.18414062 5.200625 6.74328125 4.53125 6.2890625 C4.0259375 5.86367187 3.520625 5.43828125 3 5 C3 4.34 3 3.68 3 3 C2.01 2.67 1.02 2.34 0 2 C0 1.34 0 0.68 0 0 Z " fill="#309828" transform="translate(95,135)"/>
<path d="M0 0 C1.98 0.495 1.98 0.495 4 1 C4.33 2.98 4.66 4.96 5 7 C3.02 6.34 1.04 5.68 -1 5 C-0.67 3.35 -0.34 1.7 0 0 Z " fill="#2F5655" transform="translate(152,222)"/>
<path d="M0 0 C4.97306516 0.49730652 8.63799813 1.55302334 13 4 C9.20519658 5.26493447 6.87641726 4.89988258 3 4 C1.0625 1.9375 1.0625 1.9375 0 0 Z " fill="#223D3C" transform="translate(72,208)"/>
<path d="M0 0 C0.66 0 1.32 0 2 0 C2 0.66 2 1.32 2 2 C2.66 2 3.32 2 4 2 C4.33 3.65 4.66 5.3 5 7 C3.68 7 2.36 7 1 7 C0.67 4.69 0.34 2.38 0 0 Z " fill="#21A117" transform="translate(80,120)"/>
<path d="M0 0 C2.3125 -0.3125 2.3125 -0.3125 5 0 C6.81883009 2.3832946 8 3.95818337 8 7 C7.01 6.67 6.02 6.34 5 6 C5 5.34 5 4.68 5 4 C4.01 4 3.02 4 2 4 C2 3.01 2 2.02 2 1 C1.34 0.67 0.68 0.34 0 0 Z " fill="#CDF4CD" transform="translate(90,64)"/>
<path d="M0 0 C2.5 2.3125 2.5 2.3125 5 5 C5 5.99 5 6.98 5 8 C3.68 7.67 2.36 7.34 1 7 C0.67 4.69 0.34 2.38 0 0 Z " fill="#62BB50" transform="translate(193,56)"/>
<path d="M0 0 C2.4375 0.375 2.4375 0.375 5 1 C5.33 1.66 5.66 2.32 6 3 C5.34 3 4.68 3 4 3 C3.67 3.99 3.34 4.98 3 6 C2.01 6 1.02 6 0 6 C0 4.02 0 2.04 0 0 Z " fill="#2F5455" transform="translate(0,22)"/>
<path d="M0 0 C-0.66 1.65 -1.32 3.3 -2 5 C-2.66 5 -3.32 5 -4 5 C-4 4.34 -4 3.68 -4 3 C-4.99 2.67 -5.98 2.34 -7 2 C-7 1.34 -7 0.68 -7 0 C-4.3333581 -1.33332095 -2.83319697 -0.67102033 0 0 Z " fill="#1F3B3D" transform="translate(17,224)"/>
<path d="M0 0 C7.83098592 1.95774648 7.83098592 1.95774648 11 5 C11 5.66 11 6.32 11 7 C6.89188572 5.55007731 3.53144334 3.54592427 0 1 C0 0.67 0 0.34 0 0 Z " fill="#2F5051" transform="translate(239,93)"/>
<path d="M0 0 C0.66 0 1.32 0 2 0 C0.84414715 3.91211733 -0.35534962 6.8745041 -3 10 C-3.66 9.67 -4.32 9.34 -5 9 C-4.34 7.02 -3.68 5.04 -3 3 C-2.01 3 -1.02 3 0 3 C0 2.01 0 1.02 0 0 Z " fill="#4DAA3E" transform="translate(42,70)"/>
<path d="M0 0 C1.32 0 2.64 0 4 0 C4.33 1.65 4.66 3.3 5 5 C3.02 5.33 1.04 5.66 -1 6 C-0.67 4.02 -0.34 2.04 0 0 Z " fill="#DEEBEB" transform="translate(11,217)"/>
<path d="M0 0 C0 0.66 0 1.32 0 2 C0.639375 2.12375 1.27875 2.2475 1.9375 2.375 C2.618125 2.58125 3.29875 2.7875 4 3 C4.33 3.66 4.66 4.32 5 5 C3.56068883 4.54738642 2.12361001 4.08767021 0.6875 3.625 C-0.11300781 3.36976563 -0.91351563 3.11453125 -1.73828125 2.8515625 C-4 2 -4 2 -7 0 C-3.98968256 -0.93423645 -3.13349732 -1.04449911 0 0 Z " fill="#8BD379" transform="translate(89,192)"/>
<path d="M0 0 C0 0.99 0 1.98 0 3 C-0.66 3.66 -1.32 4.32 -2 5 C-3.32 5 -4.64 5 -6 5 C-6 5.66 -6 6.32 -6 7 C-7.32 6.67 -8.64 6.34 -10 6 C-6.7 4.02 -3.4 2.04 0 0 Z " fill="#D2F4C9" transform="translate(177,183)"/>
<path d="M0 0 C0.66 0 1.32 0 2 0 C2.33 1.98 2.66 3.96 3 6 C1.02 6.99 1.02 6.99 -1 8 C-0.67 5.36 -0.34 2.72 0 0 Z " fill="#2F5554" transform="translate(5,180)"/>
<path d="M0 0 C2.97 0.33 5.94 0.66 9 1 C8.01 2.485 8.01 2.485 7 4 C5.68 4 4.36 4 3 4 C3 3.34 3 2.68 3 2 C2.01 2 1.02 2 0 2 C0 1.34 0 0.68 0 0 Z " fill="#4AC237" transform="translate(139,162)"/>
<path d="M0 0 C0.33 0 0.66 0 1 0 C1.25 2.25 1.25 2.25 1 5 C-0.875 7.3125 -0.875 7.3125 -3 9 C-3.66 9 -4.32 9 -5 9 C-3.75471468 5.55151758 -2.38532951 2.80016942 0 0 Z " fill="#D4F4CF" transform="translate(200,158)"/>
<path d="M0 0 C0.99 0 1.98 0 3 0 C3.125 3.375 3.125 3.375 3 7 C2.34 7.66 1.68 8.32 1 9 C0.63877119 7.68942607 0.28619689 6.37646376 -0.0625 5.0625 C-0.35833984 3.96615234 -0.35833984 3.96615234 -0.66015625 2.84765625 C-0.77230469 2.23792969 -0.88445313 1.62820312 -1 1 C-0.67 0.67 -0.34 0.34 0 0 Z " fill="#23A813" transform="translate(36,127)"/>
<path d="M0 0 C0 0.66 0 1.32 0 2 C0.99 2 1.98 2 3 2 C3 2.99 3 3.98 3 5 C1.02 5 -0.96 5 -3 5 C-3.33 3.68 -3.66 2.36 -4 1 C-2 0 -2 0 0 0 Z " fill="#229E18" transform="translate(160,121)"/>
<path d="M0 0 C-0.33 1.65 -0.66 3.3 -1 5 C-4.96 5 -8.92 5 -13 5 C-13 4.67 -13 4.34 -13 4 C-9.7 3.67 -6.4 3.34 -3 3 C-3.33 2.34 -3.66 1.68 -4 1 C-2 0 -2 0 0 0 Z " fill="#62C856" transform="translate(96,59)"/>
<path d="M0 0 C0.99 0 1.98 0 3 0 C3.66 0.99 4.32 1.98 5 3 C5.99 3.33 6.98 3.66 8 4 C8 4.66 8 5.32 8 6 C5.23723823 5.47731534 2.6739124 4.89130413 0 4 C0 2.68 0 1.36 0 0 Z " fill="#234749" transform="translate(0,18)"/>
<path d="M0 0 C-1.26794445 3.80383334 -2.48165849 4.24082925 -6 6 C-8.8125 6.6875 -8.8125 6.6875 -11 7 C-10 5 -10 5 -7 4 C-5.97980427 3.0206121 -4.97850195 2.02104551 -4 1 C-2 0 -2 0 0 0 Z " fill="#E3F9DC" transform="translate(167,190)"/>
<path d="M0 0 C3.3 0 6.6 0 10 0 C7.57869669 2.42130331 6.19888623 2.52840504 2.875 3.125 C1.50988281 3.37636719 1.50988281 3.37636719 0.1171875 3.6328125 C-0.58148438 3.75398437 -1.28015625 3.87515625 -2 4 C-1.34 2.68 -0.68 1.36 0 0 Z " fill="#6CD64E" transform="translate(147,192)"/>
<path d="M0 0 C2.64 0 5.28 0 8 0 C7.67 1.65 7.34 3.3 7 5 C6.01 4.34 5.02 3.68 4 3 C2.34450469 2.61500109 0.6777567 2.27206865 -1 2 C-0.67 1.34 -0.34 0.68 0 0 Z " fill="#436363" transform="translate(15,183)"/>
<path d="M0 0 C1 2 1 2 0.1875 4.5 C-1 7 -1 7 -3 9 C-3.99 8.67 -4.98 8.34 -6 8 C-4.02 5.36 -2.04 2.72 0 0 Z " fill="#304343" transform="translate(212,171)"/>
<path d="M0 0 C1.625 2.5 1.625 2.5 3 5 C-0.63 4.01 -4.26 3.02 -8 2 C-8 1.67 -8 1.34 -8 1 C-2.25 0 -2.25 0 0 0 Z " fill="#CDF2CA" transform="translate(133,153)"/>
<path d="M0 0 C1.2380014 3.57644848 0.74926071 6.33694766 0 10 C-0.99 10 -1.98 10 -3 10 C-2.49287967 6.28111761 -1.88391785 3.26545761 0 0 Z " fill="#CAEFC3" transform="translate(207,144)"/>
<path d="M0 0 C3.5875213 1.33250791 6.8364623 2.830717 10 5 C10 5.66 10 6.32 10 7 C6.4124787 5.66749209 3.1635377 4.169283 0 2 C0 1.34 0 0.68 0 0 Z " fill="#2F5152" transform="translate(240,104)"/>
<path d="M0 0 C1.051875 0.12375 2.10375 0.2475 3.1875 0.375 C3.1875 0.705 3.1875 1.035 3.1875 1.375 C1.5375 1.375 -0.1125 1.375 -1.8125 1.375 C-2.1425 2.365 -2.4725 3.355 -2.8125 4.375 C-5.875 5.5625 -5.875 5.5625 -8.8125 6.375 C-4.75096154 0.46730769 -4.75096154 0.46730769 0 0 Z " fill="#F0FEEA" transform="translate(86.8125,63.625)"/>
<path d="M0 0 C-0.99 0.33 -1.98 0.66 -3 1 C-2.34 1.33 -1.68 1.66 -1 2 C-1 2.66 -1 3.32 -1 4 C-6.75 3.25 -6.75 3.25 -9 1 C-5.57367167 -0.61798838 -3.61944899 -1.34053666 0 0 Z " fill="#425A59" transform="translate(44,214)"/>
<path d="M0 0 C0.66 0.33 1.32 0.66 2 1 C2 1.99 2 2.98 2 4 C-0.31 4.33 -2.62 4.66 -5 5 C-5 4.34 -5 3.68 -5 3 C-2.625 1.3125 -2.625 1.3125 0 0 Z " fill="#253D3B" transform="translate(180,201)"/>
<path d="M0 0 C0.99 0.33 1.98 0.66 3 1 C1.02 3.31 -0.96 5.62 -3 8 C-3.99 7.67 -4.98 7.34 -6 7 C-4.02 4.69 -2.04 2.38 0 0 Z " fill="#1A2F2E" transform="translate(205,180)"/>
<path d="M0 0 C2.31 0.33 4.62 0.66 7 1 C6.67 2.32 6.34 3.64 6 5 C3.69 4.34 1.38 3.68 -1 3 C-0.67 2.01 -0.34 1.02 0 0 Z " fill="#4CC03A" transform="translate(155,161)"/>
<path d="M0 0 C1.32 0.66 2.64 1.32 4 2 C4 2.66 4 3.32 4 4 C4.66 4 5.32 4 6 4 C6 4.66 6 5.32 6 6 C3.69 5.67 1.38 5.34 -1 5 C-0.67 3.35 -0.34 1.7 0 0 Z " fill="#1D393B" transform="translate(227,142)"/>
<path d="M0 0 C0.33 0 0.66 0 1 0 C3.27678571 8.03571429 3.27678571 8.03571429 2 12 C-0.05257931 8.55166676 -1.0632763 6.68338409 -0.6875 2.625 C-0.460625 1.75875 -0.23375 0.8925 0 0 Z " fill="#516B6C" transform="translate(14,128)"/>
<path d="M0 0 C7.75 0.75 7.75 0.75 10 3 C6.37 3 2.74 3 -1 3 C-0.67 2.01 -0.34 1.02 0 0 Z " fill="#DDFADA" transform="translate(150,125)"/>
<path d="M0 0 C0.66 0.66 1.32 1.32 2 2 C1.64644564 4.26274788 1.02455574 5.95088852 0 8 C-0.99 8 -1.98 8 -3 8 C-1.125 2.25 -1.125 2.25 0 0 Z " fill="#CDD7D6" transform="translate(24,64)"/>
<path d="M0 0 C2.625 -0.1875 2.625 -0.1875 5 0 C2.42215154 2.64752004 0.08351902 4.94432065 -3 7 C-2.38722388 4.03824877 -1.74627478 2.61941217 0 0 Z " fill="#4CAB45" transform="translate(78,63)"/>
<path d="M0 0 C0.99 0.33 1.98 0.66 3 1 C0.36 2.98 -2.28 4.96 -5 7 C-5.66 6.67 -6.32 6.34 -7 6 C-2.25 1.125 -2.25 1.125 0 0 Z " fill="#64CD4B" transform="translate(74,37)"/>
<path d="M0 0 C2.64 0.66 5.28 1.32 8 2 C5.03312999 3.64826111 2.34373475 4.44271087 -1 5 C-0.67 3.35 -0.34 1.7 0 0 Z " fill="#8BC978" transform="translate(38,192)"/>
<path d="M0 0 C0.66 0.33 1.32 0.66 2 1 C-0.475 5.455 -0.475 5.455 -3 10 C-3.66 9.01 -4.32 8.02 -5 7 C-4.34 6.01 -3.68 5.02 -3 4 C-2.34 4 -1.68 4 -1 4 C-0.67 2.68 -0.34 1.36 0 0 Z " fill="#DBE8E7" transform="translate(217,160)"/>
<path d="M0 0 C2.95409701 1.37154504 5.44008376 2.98863724 8 5 C7.67 5.66 7.34 6.32 7 7 C3.42895561 5.12050295 1.45255699 3.82946843 0 0 Z " fill="#2D4F4F" transform="translate(241,77)"/>
<path d="M0 0 C3 1 3 1 4.1875 3.0625 C4.455625 3.701875 4.72375 4.34125 5 5 C4.34 5 3.68 5 3 5 C2.67 5.66 2.34 6.32 2 7 C1.34 7 0.68 7 0 7 C0 4.69 0 2.38 0 0 Z " fill="#56C63E" transform="translate(59,48)"/>
<path d="M0 0 C0.99 0 1.98 0 3 0 C3 0.66 3 1.32 3 2 C3.99 2 4.98 2 6 2 C6 2.66 6 3.32 6 4 C3.69 4 1.38 4 -1 4 C-0.67 2.68 -0.34 1.36 0 0 Z " fill="#305756" transform="translate(212,225)"/>
<path d="M0 0 C1.32 0 2.64 0 4 0 C4 1.65 4 3.3 4 5 C2.68 5 1.36 5 0 5 C0 3.35 0 1.7 0 0 Z " fill="#48BC35" transform="translate(194,157)"/>
<path d="M0 0 C0 1.98 0 3.96 0 6 C-3 5 -3 5 -6 3 C-2.25 0 -2.25 0 0 0 Z " fill="#43C133" transform="translate(176,154)"/>
<path d="M0 0 C3.34249629 0.59687434 5.46436342 1.73603877 8 4 C8 4.66 8 5.32 8 6 C2.33846154 4.52307692 2.33846154 4.52307692 0.625 1.875 C0.41875 1.25625 0.2125 0.6375 0 0 Z " fill="#D9F7D8" transform="translate(113,146)"/>
<path d="M0 0 C3.91211733 1.15585285 6.8745041 2.35534962 10 5 C7.69 4.67 5.38 4.34 3 4 C3 3.34 3 2.68 3 2 C2.01 2 1.02 2 0 2 C0 1.34 0 0.68 0 0 Z " fill="#DCFADC" transform="translate(118,130)"/>
<path d="M0 0 C2.0625 0.4375 2.0625 0.4375 4 1 C4.33 2.32 4.66 3.64 5 5 C3.35 5 1.7 5 0 5 C-0.5625 3.0625 -0.5625 3.0625 -1 1 C-0.67 0.67 -0.34 0.34 0 0 Z " fill="#2CA023" transform="translate(124,128)"/>
<path d="M0 0 C0.66 0.66 1.32 1.32 2 2 C1.77256695 4.95662966 1.38764062 6.55033688 -0.5625 8.8125 C-1.036875 9.204375 -1.51125 9.59625 -2 10 C-2 8.35 -2 6.7 -2 5 C-1.34 5 -0.68 5 0 5 C0 3.35 0 1.7 0 0 Z " fill="#C4EFC0" transform="translate(104,86)"/>
<path d="M0 0 C2 2 2 2 2.125 5.625 C2.08375 6.73875 2.0425 7.8525 2 9 C1.01 9 0.02 9 -1 9 C-0.67 6.03 -0.34 3.06 0 0 Z " fill="#2A4C4C" transform="translate(103,220)"/>
<path d="M0 0 C3.875 1.75 3.875 1.75 5 4 C2.03 4 -0.94 4 -4 4 C-2.68 2.68 -1.36 1.36 0 0 Z " fill="#70D455" transform="translate(140,194)"/>
<path d="M0 0 C2.92879371 0.62759865 5.36095629 1.58622659 8 3 C8 3.66 8 4.32 8 5 C2.25 3.125 2.25 3.125 0 2 C0 1.34 0 0.68 0 0 Z " fill="#459D3B" transform="translate(166,129)"/>
<path d="M0 0 C3 0 3 0 4.6875 1.3125 C6 3 6 3 6 6 C3.37812506 4.95125002 2.20628639 4.35068687 0.75 1.875 C0.5025 1.25625 0.255 0.6375 0 0 Z " fill="#228C1B" transform="translate(105,115)"/>
<path d="M0 0 C0.66 0.33 1.32 0.66 2 1 C0.35 2.65 -1.3 4.3 -3 6 C-3.33 4.68 -3.66 3.36 -4 2 C-2.125 0.9375 -2.125 0.9375 0 0 Z " fill="#D2F2D1" transform="translate(100,96)"/>
<path d="M0 0 C0.99 0.33 1.98 0.66 3 1 C3.33 3.31 3.66 5.62 4 8 C1 6 1 6 0.3125 2.875 C0.209375 1.92625 0.10625 0.9775 0 0 Z " fill="#50A542" transform="translate(206,80)"/>
<path d="M0 0 C2.18975773 3.28463659 2.99806563 6.20696275 4 10 C3.01 9.67 2.02 9.34 1 9 C0.67 6.03 0.34 3.06 0 0 Z " fill="#C7F1C5" transform="translate(100,76)"/>
<path d="M0 0 C-1.485 1.98 -1.485 1.98 -3 4 C-4.65 3.67 -6.3 3.34 -8 3 C-8 2.34 -8 1.68 -8 1 C-5.29120665 -0.35439668 -2.99066732 -0.06501451 0 0 Z " fill="#4DBF38" transform="translate(96,58)"/>
<path d="M0 0 C0.66 0 1.32 0 2 0 C2 1.98 2 3.96 2 6 C1.01 6.33 0.02 6.66 -1 7 C-1.625 5.1875 -1.625 5.1875 -2 3 C-1.34 2.01 -0.68 1.02 0 0 Z " fill="#375452" transform="translate(42,33)"/>
<path d="M0 0 C2.64 0.66 5.28 1.32 8 2 C7.34 2.66 6.68 3.32 6 4 C2.875 3.625 2.875 3.625 0 3 C0 2.01 0 1.02 0 0 Z " fill="#67D64E" transform="translate(147,28)"/>
<path d="M0 0 C0.94875 0.350625 1.8975 0.70125 2.875 1.0625 C2.545 2.0525 2.215 3.0425 1.875 4.0625 C-1.04017292 2.98848892 -2.90310176 2.28439824 -5.125 0.0625 C-3.125 -0.9375 -3.125 -0.9375 0 0 Z " fill="#486061" transform="translate(177.125,16.9375)"/>
<path d="M0 0 C0.99 0 1.98 0 3 0 C2.67 1.65 2.34 3.3 2 5 C0.68 5 -0.64 5 -2 5 C-2 4.34 -2 3.68 -2 3 C-1.34 3 -0.68 3 0 3 C0 2.01 0 1.02 0 0 Z " fill="#325555" transform="translate(209,220)"/>
<path d="M0 0 C0.99 0 1.98 0 3 0 C3 1.65 3 3.3 3 5 C1.68 4.67 0.36 4.34 -1 4 C-0.67 2.68 -0.34 1.36 0 0 Z " fill="#335553" transform="translate(216,184)"/>
<path d="M0 0 C0.144375 0.598125 0.28875 1.19625 0.4375 1.8125 C0.8872439 3.56150404 1.42892341 5.28677023 2 7 C0.68 7.99 -0.64 8.98 -2 10 C-1.54177532 6.53058454 -1.10868317 3.32604951 0 0 Z " fill="#D7E3E2" transform="translate(25,176)"/>
<path d="M0 0 C1.61949011 2.57213134 2.04408751 3.67669159 1.625 6.75 C1.41875 7.4925 1.2125 8.235 1 9 C0.01 8.34 -0.98 7.68 -2 7 C-1.34 4.69 -0.68 2.38 0 0 Z " fill="#445A5C" transform="translate(223,150)"/>
<path d="M0 0 C-5.75 4 -5.75 4 -8 4 C-8 3.01 -8 2.02 -8 1 C-2.25 -1.125 -2.25 -1.125 0 0 Z " fill="#D5F9D4" transform="translate(171,155)"/>
<path d="M0 0 C1.32 0.33 2.64 0.66 4 1 C4 2.98 4 4.96 4 7 C1.49962266 4.82575883 0.56371414 3.26954202 0 0 Z " fill="#53AB48" transform="translate(38,146)"/>
<path d="M0 0 C1.42944945 2.35438733 2.08661261 3.48032433 1.625 6.25 C1.41875 6.8275 1.2125 7.405 1 8 C0.01 8 -0.98 8 -2 8 C-1.34 5.36 -0.68 2.72 0 0 Z " fill="#3BA22B" transform="translate(37,80)"/>
<path d="M0 0 C2 2 2 2 2.125 4.625 C2.08375 5.40875 2.0425 6.1925 2 7 C1.01 7.33 0.02 7.66 -1 8 C-0.67 5.36 -0.34 2.72 0 0 Z " fill="#32AF21" transform="translate(66,78)"/>
</svg>
